<?xml version="1.0" encoding="UTF-8"?>
<svg id="Layer_1" data-name="Layer 1" xmlns="http://www.w3.org/2000/svg" version="1.1" viewBox="0 0 200 200">
  <defs>
    <style>
      .cls-1 {
        fill: #64bebe;
        stroke-width: 0px;
      }
    </style>
  </defs>
  <g id="development_coding_programming_laptop" data-name="development, coding, programming, laptop">
    <g>
      <g>
        <path class="cls-1" d="M78.9,136.8c-1.7,0-3-1.4-3-3v-.6c0-1.7,1.4-3,3-3s3,1.4,3,3v.6c0,1.7-1.4,3-3,3Z"/>
        <path class="cls-1" d="M72.8,130.2c-1.7,0-3-1.4-3-3v-.6c0-1.7,1.4-3,3-3s3,1.4,3,3v.6c0,1.7-1.4,3-3,3Z"/>
        <path class="cls-1" d="M90.9,136.8c-1.7,0-3-1.4-3-3v-.6c0-1.7,1.4-3,3-3s3,1.4,3,3v.6c0,1.7-1.4,3-3,3Z"/>
        <path class="cls-1" d="M84.9,130.2c-1.7,0-3-1.4-3-3v-.6c0-1.7,1.4-3,3-3s3,1.4,3,3v.6c0,1.7-1.4,3-3,3Z"/>
        <path class="cls-1" d="M103,136.8c-1.7,0-3-1.4-3-3v-.6c0-1.7,1.4-3,3-3s3,1.4,3,3v.6c0,1.7-1.4,3-3,3Z"/>
        <path class="cls-1" d="M97,130.2c-1.7,0-3-1.4-3-3v-.6c0-1.7,1.4-3,3-3s3,1.4,3,3v.6c0,1.7-1.4,3-3,3Z"/>
        <path class="cls-1" d="M115.1,136.8c-1.7,0-3-1.4-3-3v-.6c0-1.7,1.4-3,3-3s3,1.4,3,3v.6c0,1.7-1.4,3-3,3Z"/>
        <path class="cls-1" d="M109.1,130.2c-1.7,0-3-1.4-3-3v-.6c0-1.7,1.4-3,3-3s3,1.4,3,3v.6c0,1.7-1.4,3-3,3Z"/>
        <path class="cls-1" d="M127.2,136.8c-1.7,0-3-1.4-3-3v-.6c0-1.7,1.4-3,3-3s3,1.4,3,3v.6c0,1.7-1.4,3-3,3Z"/>
        <path class="cls-1" d="M121.1,130.2c-1.7,0-3-1.4-3-3v-.6c0-1.7,1.4-3,3-3s3,1.4,3,3v.6c0,1.7-1.4,3-3,3Z"/>
        <path class="cls-1" d="M139.2,136.8c-1.7,0-3-1.4-3-3v-.6c0-1.7,1.4-3,3-3s3,1.4,3,3v.6c0,1.7-1.4,3-3,3Z"/>
        <path class="cls-1" d="M133.2,130.2c-1.7,0-3-1.4-3-3v-.6c0-1.7,1.4-3,3-3s3,1.4,3,3v.6c0,1.7-1.4,3-3,3Z"/>
        <path class="cls-1" d="M151.3,136.8c-1.7,0-3-1.4-3-3v-.6c0-1.7,1.4-3,3-3s3,1.4,3,3v.6c0,1.7-1.4,3-3,3Z"/>
        <path class="cls-1" d="M145.3,130.2c-1.7,0-3-1.4-3-3v-.6c0-1.7,1.4-3,3-3s3,1.4,3,3v.6c0,1.7-1.4,3-3,3Z"/>
        <path class="cls-1" d="M157.3,130.2c-1.7,0-3-1.4-3-3v-.6c0-1.7,1.4-3,3-3s3,1.4,3,3v.6c0,1.7-1.4,3-3,3Z"/>
        <path class="cls-1" d="M169.4,106c-1.7,0-3-1.4-3-3V18.5c0-1.7-1.4-3-3-3H36.6c-1.7,0-3,1.4-3,3v30.2c0,1.7-1.4,3-3,3s-3-1.4-3-3v-30.2c0-5,4.1-9.1,9.1-9.1h126.7c5,0,9.1,4.1,9.1,9.1v84.5c0,1.7-1.4,3-3,3Z"/>
        <path class="cls-1" d="M187.5,148.3c-1,0-2-.5-2.6-1.5l-17.2-28.7h-85.8c-1.7,0-3-1.4-3-3s1.4-3,3-3h87.5c1.1,0,2,.6,2.6,1.5l18.1,30.2c.9,1.4.4,3.3-1,4.1-.5.3-1,.4-1.5.4Z"/>
        <path class="cls-1" d="M175.4,160.3h-72.4c-1.7,0-3-1.4-3-3s1.4-3,3-3h72.4c3.9,0,7.3-2.5,8.5-6h-93c-1.7,0-3-1.4-3-3s1.4-3,3-3h96.6c1.7,0,3,1.4,3,3,0,8.3-6.8,15.1-15.1,15.1Z"/>
      </g>
      <path class="cls-1" d="M90.9,190.5H18.5c-1.7,0-3-1.4-3-3v-22.5c0-3.8,1.4-7.4,4-10.2l24.7-27c1.9-2.1,1.9-5.3,0-7.4l-24.7-27c-2.6-2.8-4-6.4-4-10.2v-22.5c0-1.7,1.4-3,3-3h72.4c1.7,0,3,1.4,3,3v22.5c0,3.8-1.4,7.4-4,10.2l-24.7,27c-1.9,2.1-1.9,5.3,0,7.4l24.7,27c2.6,2.8,4,6.4,4,10.2v22.5c0,1.7-1.4,3-3,3ZM21.6,184.5h66.4v-19.4c0-2.2-.9-4.4-2.4-6.1l-24.7-27c-4-4.4-4-11.1,0-15.5l24.7-27c1.6-1.7,2.4-3.9,2.4-6.1v-19.4H21.6v19.4c0,2.2.9,4.4,2.4,6.1l24.7,27c4,4.4,4,11.1,0,15.5l-24.7,27c-1.6,1.7-2.4,3.9-2.4,6.1v19.4Z"/>
      <path class="cls-1" d="M97,63.8H12.5c-1.7,0-3-1.4-3-3s1.4-3,3-3h84.5c1.7,0,3,1.4,3,3s-1.4,3-3,3Z"/>
      <path class="cls-1" d="M97,190.5H12.5c-1.7,0-3-1.4-3-3s1.4-3,3-3h84.5c1.7,0,3,1.4,3,3s-1.4,3-3,3Z"/>
      <path class="cls-1" d="M30.6,181.5c-1,0-2-.5-2.6-1.4-.9-1.4-.5-3.3,1-4.2l24.1-15.1c1-.6,2.2-.6,3.2,0l24.1,15.1c1.4.9,1.8,2.7,1,4.2-.9,1.4-2.7,1.8-4.2,1l-22.5-14.1-22.5,14.1c-.5.3-1.1.5-1.6.5Z"/>
      <path class="cls-1" d="M69.8,100h-30.2c-1.7,0-3-1.4-3-3s1.4-3,3-3h30.2c1.7,0,3,1.4,3,3s-1.4,3-3,3Z"/>
      <path class="cls-1" d="M127.2,33.6c-1.7,0-3-1.4-3-3v-.6c0-1.7,1.4-3,3-3s3,1.4,3,3v.6c0,1.7-1.4,3-3,3Z"/>
      <path class="cls-1" d="M139.2,33.6c-1.7,0-3-1.4-3-3v-.6c0-1.7,1.4-3,3-3s3,1.4,3,3v.6c0,1.7-1.4,3-3,3Z"/>
      <path class="cls-1" d="M151.3,33.6c-1.7,0-3-1.4-3-3v-.6c0-1.7,1.4-3,3-3s3,1.4,3,3v.6c0,1.7-1.4,3-3,3Z"/>
      <path class="cls-1" d="M54.7,148.3c-1.7,0-3-1.4-3-3v-.6c0-1.7,1.4-3,3-3s3,1.4,3,3v.6c0,1.7-1.4,3-3,3Z"/>
    </g>
  </g>
</svg>