<?xml version="1.0" encoding="UTF-8"?>
<svg id="Layer_1" data-name="Layer 1" xmlns="http://www.w3.org/2000/svg" version="1.1" viewBox="0 0 200 200">
  <defs>
    <style>
      .cls-1 {
        fill: #64bebe;
      }

      .cls-1, .cls-2 {
        stroke-width: 0px;
      }

      .cls-2 {
        fill: #464646;
      }
    </style>
  </defs>
  <path class="cls-1" d="M32.1,29.5c5.3,0,9.6-4.3,9.6-9.5s-4.3-9.8-9.6-9.8-9.6,4.3-9.6,9.5,4.3,9.8,9.6,9.8ZM32.1,17.9c.9,0,1.9.9,1.9,1.8s-.9,1.8-1.9,1.8-1.9-.9-1.9-1.8.9-1.8,1.9-1.8Z"/>
  <path class="cls-1" d="M20.6,144.2c-5.3,0-9.6,4.3-9.6,9.5s4.3,9.5,9.6,9.5,9.6-4.3,9.6-9.5-4.3-9.5-9.6-9.5ZM20.6,155.5c-.9,0-1.9-.9-1.9-1.8s.9-1.8,1.9-1.8,1.9.9,1.9,1.8-.9,1.8-1.9,1.8Z"/>
  <path class="cls-1" d="M177.2,128.9c-6.5,0-11.8,5.2-11.8,11.6s5.3,11.6,11.8,11.6,11.8-5.2,11.8-11.6-5.3-11.6-11.8-11.6ZM177.2,144.2c-2.2,0-4-1.8-4-4s1.9-4,4-4,4,1.8,4,4-1.9,4-4,4Z"/>
  <path class="cls-1" d="M171.3,48.5c7.4,0,13.6-6.1,13.6-13.5s-6.2-13.5-13.6-13.5-13.6,6.1-13.6,13.5,6.2,13.5,13.6,13.5ZM171.3,29.5c3.1,0,5.9,2.4,5.9,5.8s-2.5,5.5-5.9,5.5-5.9-2.4-5.9-5.8,2.8-5.5,5.9-5.5Z"/>
  <path class="cls-2" d="M181.2,59.8c2.2,0,4,1.8,4,4s-1.8,4-4,4-4-1.8-4-4,1.8-4,4-4Z"/>
  <path class="cls-2" d="M134.8,13.9c2.2,0,4,1.8,4,4s-1.8,4-4,4-4-1.8-4-4,1.8-4,4-4Z"/>
  <path class="cls-1" d="M45.7,178.5c2.2,0,4,1.8,4,4s-1.8,4-4,4-4-1.8-4-4,1.8-4,4-4Z"/>
  <path class="cls-2" d="M22.5,44.5c2.2,0,4,1.8,4,4s-1.8,4-4,4-4-1.8-4-4,1.8-4,4-4Z"/>
  <path class="cls-2" d="M156.2,121.3c15.8,0,28.8-12.8,28.8-28.4s-11.1-26.6-25.7-28.1c4-17.7-9.6-34.6-28.2-34.6s-8,.9-11.8,2.4c-7.7-13.5-22.3-22-38.1-22-28.5,0-49.5,26.6-42.1,54.1-14.5.9-26,13.2-26,28.1s13,28.4,28.8,28.4h19.5v57.2c0,6.4,5.3,11.3,11.4,11.3h54.5c6.5,0,11.4-5.2,11.4-11.3v-57.2h17.3ZM42,113.6c-11.4,0-21-9.2-21-20.8s10.8-22,23.5-20.5c2.8.3,5.3-2.4,4-5.2-1.9-4.3-2.8-8.9-2.8-13.5,0-19.6,16.1-35.5,35.9-35.5s26.9,8,32.8,21.1c2.2,4.9,3.4,9.8,3.4,15.6s1.9,4,4,4,4-1.8,4-4c0-5.2-.9-10.4-2.8-15.3,2.8-1.2,5.6-1.8,8.4-1.8,11.4,0,21,9.2,21,20.8s-.6,5.8-1.9,8.3c-1.2,2.8.9,5.5,3.7,5.5,12.4-.9,22.9,8.6,22.9,20.8s-9.3,20.8-21,20.8h-17.6v-27.2c0-6.4-5.3-11.3-11.4-11.3h-54.5c-6.5,0-11.4,5.2-11.4,11.3v26.9h-19.2ZM130.8,178.5c0,2.1-1.5,3.7-3.7,3.7h-54.5c-2.2,0-3.7-1.5-3.7-3.7v-91.8c0-2.1,1.5-3.7,3.7-3.7h54.5c2.2,0,3.7,1.5,3.7,3.7v91.8Z"/>
  <path class="cls-1" d="M123.1,90.7h-46.4c-2.2,0-4,1.8-4,4v80.4c0,2.1,1.9,4,4,4h46.4c2.2,0,4-1.8,4-4v-80.7c0-2.1-1.9-3.7-4-3.7ZM119.3,170.8h-38.7v-72.5h38.7v72.5Z"/>
  <rect class="cls-2" x="84.4" y="106" width="15.5" height="7.6"/>
  <rect class="cls-2" x="92.1" y="117.3" width="19.5" height="7.6"/>
  <rect class="cls-2" x="84.4" y="128.9" width="19.5" height="7.6"/>
  <rect class="cls-2" x="92.1" y="140.2" width="23.2" height="7.6"/>
  <rect class="cls-2" x="84.4" y="151.8" width="30.9" height="7.6"/>
  <path class="cls-1" d="M158.9,160.4l-1.2,1.2v-29.1c0-2.1-1.9-4-4-4s-4,1.8-4,4v29.1l-1.2-1.2c-1.5-1.5-4-1.5-5.6,0s-1.5,4,0,5.5c8.4,8.3,7.7,8,8.4,8.3.9.6,2.2.9,3.4.3.9-.3.6-.3,9.3-8.6,1.5-1.5,1.5-4,0-5.5-.9-1.5-3.4-1.5-5,0Z"/>
  <path class="cls-1" d="M46.9,128.9c-1.5-.6-3.1,0-4,.9l-7.7,7.6c-1.5,1.5-1.5,4,0,5.5,1.5,1.5,4,1.5,5.6,0l1.2-1.2v29.1c0,2.1,1.9,4,4,4s4-1.8,4-4v-29.1l1.2,1.2c1.5,1.5,4,1.5,5.6,0,1.5-1.5,1.5-4,0-5.5-9-8.3-8.7-8-9.9-8.6Z"/>
</svg>