<?xml version="1.0" encoding="UTF-8"?>
<svg id="Layer_1" data-name="Layer 1" xmlns="http://www.w3.org/2000/svg" version="1.1" viewBox="0 0 200 200">
  <defs>
    <style>
      .cls-1 {
        fill: #64bebe;
      }

      .cls-1, .cls-2 {
        stroke-width: 0px;
      }

      .cls-2 {
        fill: #464646;
      }
    </style>
  </defs>
  <path class="cls-2" d="M162.3,174.8c0,1.4-1.1,2.4-2.4,2.4H58.5c-1.3,0-2.4-1.1-2.4-2.4s1.1-2.4,2.4-2.4h6.4v-3c0-1.3,1.1-2.4,2.4-2.4s2.4,1.1,2.4,2.4v3h9.1v-3c0-1.3,1.1-2.4,2.4-2.4s2.4,1.1,2.4,2.4v3h9.1v-3c0-1.3,1.1-2.4,2.4-2.4s2.4,1.1,2.4,2.4v3h9.1v-3c0-1.3,1.1-2.4,2.4-2.4s2.4,1.1,2.4,2.4v3h9.1v-3c0-1.3,1.1-2.4,2.4-2.4s2.4,1.1,2.4,2.4v3h9.1v-3c0-1.3,1.1-2.4,2.4-2.4s2.4,1.1,2.4,2.4v3h9.1v-3c0-1.3,1.1-2.4,2.4-2.4s2.4,1.1,2.4,2.4v3h6c1.3,0,2.4,1.1,2.4,2.4Z"/>
  <path class="cls-2" d="M160.1,78.1h-8.4c-1.3,0-2.4,1.1-2.4,2.4v1.8h-9c-1.3,0-2.4,1.1-2.4,2.4s1.1,2.4,2.4,2.4h9v1.8c0,1.4,1.1,2.4,2.4,2.4h8.4c1.4,0,2.4-1.1,2.4-2.4v-8.4c0-1.3-1.1-2.4-2.4-2.4ZM157.7,86.5h-3.5v-3.5h3.5v3.5Z"/>
  <path class="cls-2" d="M160.1,97.8h-8.4c-1.3,0-2.4,1.1-2.4,2.4v1.8h-9c-1.3,0-2.4,1.1-2.4,2.4s1.1,2.4,2.4,2.4h9v1.8c0,1.3,1.1,2.4,2.4,2.4h8.4c1.4,0,2.4-1.1,2.4-2.4v-8.4c0-1.4-1.1-2.4-2.4-2.4ZM157.7,106.2h-3.5v-3.5h3.5v3.5Z"/>
  <path class="cls-2" d="M160.1,117.1h-8.4c-1.3,0-2.4,1.1-2.4,2.4v1.8h-9c-1.3,0-2.4,1.1-2.4,2.4s1.1,2.4,2.4,2.4h9v1.8c0,1.3,1.1,2.4,2.4,2.4h8.4c1.4,0,2.4-1.1,2.4-2.4v-8.4c0-1.3-1.1-2.4-2.4-2.4ZM157.7,125.5h-3.5v-3.5h3.5v3.5Z"/>
  <path class="cls-2" d="M106.7,39.4c-3.5,0-6.4,2.9-6.4,6.4s2.9,6.4,6.4,6.4,6.4-2.9,6.4-6.4-2.9-6.4-6.4-6.4ZM106.7,47.4c-.9,0-1.5-.7-1.5-1.5s.7-1.6,1.5-1.6,1.5.7,1.5,1.6-.7,1.5-1.5,1.5ZM106.7,39.4c-3.5,0-6.4,2.9-6.4,6.4s2.9,6.4,6.4,6.4,6.4-2.9,6.4-6.4-2.9-6.4-6.4-6.4ZM106.7,47.4c-.9,0-1.5-.7-1.5-1.5s.7-1.6,1.5-1.6,1.5.7,1.5,1.6-.7,1.5-1.5,1.5ZM106.7,39.4c-3.5,0-6.4,2.9-6.4,6.4s2.9,6.4,6.4,6.4,6.4-2.9,6.4-6.4-2.9-6.4-6.4-6.4ZM106.7,47.4c-.9,0-1.5-.7-1.5-1.5s.7-1.6,1.5-1.6,1.5.7,1.5,1.6-.7,1.5-1.5,1.5ZM106.7,39.4c-3.5,0-6.4,2.9-6.4,6.4s2.9,6.4,6.4,6.4,6.4-2.9,6.4-6.4-2.9-6.4-6.4-6.4ZM106.7,47.4c-.9,0-1.5-.7-1.5-1.5s.7-1.6,1.5-1.6,1.5.7,1.5,1.6-.7,1.5-1.5,1.5ZM106.7,39.4c-3.5,0-6.4,2.9-6.4,6.4s2.9,6.4,6.4,6.4,6.4-2.9,6.4-6.4-2.9-6.4-6.4-6.4ZM106.7,47.4c-.9,0-1.5-.7-1.5-1.5s.7-1.6,1.5-1.6,1.5.7,1.5,1.6-.7,1.5-1.5,1.5ZM106.7,39.4c-3.5,0-6.4,2.9-6.4,6.4s2.9,6.4,6.4,6.4,6.4-2.9,6.4-6.4-2.9-6.4-6.4-6.4ZM106.7,47.4c-.9,0-1.5-.7-1.5-1.5s.7-1.6,1.5-1.6,1.5.7,1.5,1.6-.7,1.5-1.5,1.5ZM180.8,8.5c-6.6,0-12.1,4.4-13.8,10.5h-5.5c0-.3-.1-.6-.2-.9-1-3-3-5.5-5.9-6.9-2.8-1.5-6-1.7-9.1-.8l-66.4,21.2c-3,1-5.5,3.1-6.9,5.9-1.5,2.8-1.7,6.1-.8,9.1,1,3,3,5.5,5.9,6.9,1.7.9,3.6,1.3,5.5,1.3s2.4-.2,3.6-.6l4-1.3-1.1,9.9h-33.9v-7.7c-.3-5.2-2.7-10-6.6-13.4s-9-5.1-14.2-4.8c-13.1.9-23,12.2-22.1,25.2v99.1c0,1,0,2,0,3,0,0,0,0,0,0h0c.5,7.8,4.1,14.8,9.9,19.9,5.4,4.7,12.1,7.2,19,7.2s1.3,0,1.9,0h128.6c.7,0,1.3-.2,1.7-.7.5-.5.7-1.1.7-1.7v-123.7c0-1.3-1.1-2.4-2.4-2.4h-49.4l-2-18.4c0-.4,0-.8,0-1.2l32.2-10.3c3-1,5.5-3.1,6.9-5.9.5-1,.9-2.1,1.1-3.3h4.9c.5,7.4,6.7,13.3,14.3,13.3s2.4-1.1,2.4-2.4-1.1-2.4-2.4-2.4c-5.2,0-9.4-4.2-9.4-9.4s4.2-9.4,9.4-9.4,9.4,4.2,9.4,9.4,1.1,2.4,2.4,2.4,2.4-1.1,2.4-2.4c0-7.9-6.4-14.3-14.3-14.3ZM91.4,96.6h7.1c1.3,0,2.4-1.1,2.4-2.4s-1.1-2.4-2.4-2.4h-6.6l.9-8.8h13.1v41.7h-17.6l1-9.7h9.1c1.3,0,2.4-1.1,2.4-2.4s-1.1-2.4-2.4-2.4h-8.5l1.5-13.5ZM47.5,148.4c2.2,2.4,3.7,5.5,3.9,9,.4,6.2-4.3,11.5-10.4,12-2.3.1-4.5-.6-6.2-2.1-1.7-1.5-2.7-3.6-2.9-5.8-.2-3.5,2.4-6.5,5.9-6.7,0,0,.2,0,.3,0,2.4,0,4.4,1.8,4.5,4.2,0,1.3,1.2,2.3,2.5,2.3,1.3,0,2.4-1.1,2.4-2.4v-10.4ZM35.8,41.9c3.9-.3,7.7,1,10.6,3.6,2.9,2.6,4.7,6.1,5,9.9v90.1c-1.5-1.6-3.2-3-5-4.1,0,0-.2,0-.2-.1-3.1-1.7-6.8-2.6-10.6-2.3-7.1.5-13.2,4-17.3,9.3V62c-.7-10.4,7.2-19.4,17.6-20.1ZM170.3,67.7v118.8H44c-6.5.4-12.7-1.7-17.6-6-4.9-4.2-7.8-10.1-8.2-16.6v-2.6c.6-9.3,8-16.9,17.6-17.6,2.4-.2,4.7.3,6.8,1.2v6.1c-1.5-.8-3.3-1.3-5.2-1.1-6.1.4-10.8,5.8-10.4,11.9.2,3.6,1.9,6.8,4.5,9.2s6.1,3.5,9.7,3.3c8.8-.6,15.5-8.2,15-17v-89.5s33.3,0,33.3,0l-1.4,12.5h0s-1.5,13.6-1.5,13.6h0s-2,18.3-2,18.3h0c0,0-1.6,14.6-1.6,14.6h0s-1.5,14.3-1.5,14.3h-10.3c-1.3,0-2.4,1.1-2.4,2.4v10.3h-4.1c-1.3,0-2.4,1.1-2.4,2.4s1.1,2.4,2.4,2.4h83.9c1.4,0,2.4-1.1,2.4-2.4s-1.1-2.4-2.4-2.4h-4.1v-10.3c0-1.3-1.1-2.4-2.4-2.4h-10.3l-7.9-73.5h46.4ZM139.7,146.1v7.9h-65.9v-7.9h65.9ZM126.9,141.2h-40.3l1.2-11.6h20.5c1.3,0,2.4-1.1,2.4-2.4v-46.6c0-1.3-1.1-2.4-2.4-2.4h-15l1.3-12.5s0,0,0,0l1.7-15.8.5-4.8c0,0,0-.2,0-.3,0-5.4,4.4-9.8,9.8-9.8s8.3,3,9.4,7.2c0,.1,0,.2,0,.3,0,0,0,0,0,0,.2.7.3,1.5.3,2.2s0,.2,0,.3l2.2,20.6c0,0,0,.1,0,.1l8.1,75.6ZM156.1,24.9c-.9,1.7-2.3,2.9-4.1,3.5l-31.9,10.2c-2.3-5.1-7.4-8.6-13.4-8.6s-14.6,6.5-14.7,14.5l-.3,3.1-6.1,2c-3.7,1.2-7.6-.9-8.8-4.5-.6-1.8-.4-3.7.5-5.3.9-1.7,2.3-2.9,4.1-3.5l66.4-21.2c1.8-.6,3.7-.4,5.3.5,1.7.9,2.9,2.3,3.5,4.1.2.6.3,1.2.3,1.9h0c0,0,0,.2,0,.2,0,1.1-.2,2.2-.8,3.3ZM106.7,39.4c-3.5,0-6.4,2.9-6.4,6.4s2.9,6.4,6.4,6.4,6.4-2.9,6.4-6.4-2.9-6.4-6.4-6.4ZM106.7,47.4c-.9,0-1.5-.7-1.5-1.5s.7-1.6,1.5-1.6,1.5.7,1.5,1.6-.7,1.5-1.5,1.5ZM106.7,39.4c-3.5,0-6.4,2.9-6.4,6.4s2.9,6.4,6.4,6.4,6.4-2.9,6.4-6.4-2.9-6.4-6.4-6.4ZM106.7,47.4c-.9,0-1.5-.7-1.5-1.5s.7-1.6,1.5-1.6,1.5.7,1.5,1.6-.7,1.5-1.5,1.5ZM106.7,39.4c-3.5,0-6.4,2.9-6.4,6.4s2.9,6.4,6.4,6.4,6.4-2.9,6.4-6.4-2.9-6.4-6.4-6.4ZM106.7,47.4c-.9,0-1.5-.7-1.5-1.5s.7-1.6,1.5-1.6,1.5.7,1.5,1.6-.7,1.5-1.5,1.5ZM106.7,39.4c-3.5,0-6.4,2.9-6.4,6.4s2.9,6.4,6.4,6.4,6.4-2.9,6.4-6.4-2.9-6.4-6.4-6.4ZM106.7,47.4c-.9,0-1.5-.7-1.5-1.5s.7-1.6,1.5-1.6,1.5.7,1.5,1.6-.7,1.5-1.5,1.5ZM106.7,39.4c-3.5,0-6.4,2.9-6.4,6.4s2.9,6.4,6.4,6.4,6.4-2.9,6.4-6.4-2.9-6.4-6.4-6.4ZM106.7,47.4c-.9,0-1.5-.7-1.5-1.5s.7-1.6,1.5-1.6,1.5.7,1.5,1.6-.7,1.5-1.5,1.5ZM106.7,39.4c-3.5,0-6.4,2.9-6.4,6.4s2.9,6.4,6.4,6.4,6.4-2.9,6.4-6.4-2.9-6.4-6.4-6.4ZM106.7,47.4c-.9,0-1.5-.7-1.5-1.5s.7-1.6,1.5-1.6,1.5.7,1.5,1.6-.7,1.5-1.5,1.5ZM106.7,39.4c-3.5,0-6.4,2.9-6.4,6.4s2.9,6.4,6.4,6.4,6.4-2.9,6.4-6.4-2.9-6.4-6.4-6.4ZM106.7,47.4c-.9,0-1.5-.7-1.5-1.5s.7-1.6,1.5-1.6,1.5.7,1.5,1.6-.7,1.5-1.5,1.5Z"/>
  <path class="cls-2" d="M162.3,174.8c0,1.4-1.1,2.4-2.4,2.4H58.5c-1.3,0-2.4-1.1-2.4-2.4s1.1-2.4,2.4-2.4h6.4v-3c0-1.3,1.1-2.4,2.4-2.4s2.4,1.1,2.4,2.4v3h9.1v-3c0-1.3,1.1-2.4,2.4-2.4s2.4,1.1,2.4,2.4v3h9.1v-3c0-1.3,1.1-2.4,2.4-2.4s2.4,1.1,2.4,2.4v3h9.1v-3c0-1.3,1.1-2.4,2.4-2.4s2.4,1.1,2.4,2.4v3h9.1v-3c0-1.3,1.1-2.4,2.4-2.4s2.4,1.1,2.4,2.4v3h9.1v-3c0-1.3,1.1-2.4,2.4-2.4s2.4,1.1,2.4,2.4v3h9.1v-3c0-1.3,1.1-2.4,2.4-2.4s2.4,1.1,2.4,2.4v3h6c1.3,0,2.4,1.1,2.4,2.4Z"/>
  <path class="cls-2" d="M160.1,78.1h-8.4c-1.3,0-2.4,1.1-2.4,2.4v1.8h-9c-1.3,0-2.4,1.1-2.4,2.4s1.1,2.4,2.4,2.4h9v1.8c0,1.4,1.1,2.4,2.4,2.4h8.4c1.4,0,2.4-1.1,2.4-2.4v-8.4c0-1.3-1.1-2.4-2.4-2.4ZM157.7,86.5h-3.5v-3.5h3.5v3.5Z"/>
  <path class="cls-2" d="M160.1,97.8h-8.4c-1.3,0-2.4,1.1-2.4,2.4v1.8h-9c-1.3,0-2.4,1.1-2.4,2.4s1.1,2.4,2.4,2.4h9v1.8c0,1.3,1.1,2.4,2.4,2.4h8.4c1.4,0,2.4-1.1,2.4-2.4v-8.4c0-1.4-1.1-2.4-2.4-2.4ZM157.7,106.2h-3.5v-3.5h3.5v3.5Z"/>
  <path class="cls-2" d="M160.1,117.1h-8.4c-1.3,0-2.4,1.1-2.4,2.4v1.8h-9c-1.3,0-2.4,1.1-2.4,2.4s1.1,2.4,2.4,2.4h9v1.8c0,1.3,1.1,2.4,2.4,2.4h8.4c1.4,0,2.4-1.1,2.4-2.4v-8.4c0-1.3-1.1-2.4-2.4-2.4ZM157.7,125.5h-3.5v-3.5h3.5v3.5Z"/>
  <path class="cls-2" d="M106.7,39.4c-3.5,0-6.4,2.9-6.4,6.4s2.9,6.4,6.4,6.4,6.4-2.9,6.4-6.4-2.9-6.4-6.4-6.4ZM106.7,47.4c-.9,0-1.5-.7-1.5-1.5s.7-1.6,1.5-1.6,1.5.7,1.5,1.6-.7,1.5-1.5,1.5Z"/>
  <path class="cls-2" d="M106.7,39.4c-3.5,0-6.4,2.9-6.4,6.4s2.9,6.4,6.4,6.4,6.4-2.9,6.4-6.4-2.9-6.4-6.4-6.4ZM106.7,47.4c-.9,0-1.5-.7-1.5-1.5s.7-1.6,1.5-1.6,1.5.7,1.5,1.6-.7,1.5-1.5,1.5Z"/>
  <path class="cls-1" d="M160.1,78.1h-8.4c-1.3,0-2.4,1.1-2.4,2.4v1.8h-9c-1.3,0-2.4,1.1-2.4,2.4s1.1,2.4,2.4,2.4h9v1.8c0,1.4,1.1,2.4,2.4,2.4h8.4c1.4,0,2.4-1.1,2.4-2.4v-8.4c0-1.3-1.1-2.4-2.4-2.4ZM157.7,86.5h-3.5v-3.5h3.5v3.5Z"/>
  <path class="cls-1" d="M160.1,97.8h-8.4c-1.3,0-2.4,1.1-2.4,2.4v1.8h-9c-1.3,0-2.4,1.1-2.4,2.4s1.1,2.4,2.4,2.4h9v1.8c0,1.3,1.1,2.4,2.4,2.4h8.4c1.4,0,2.4-1.1,2.4-2.4v-8.4c0-1.4-1.1-2.4-2.4-2.4ZM157.7,106.2h-3.5v-3.5h3.5v3.5Z"/>
  <path class="cls-1" d="M160.1,117.1h-8.4c-1.3,0-2.4,1.1-2.4,2.4v1.8h-9c-1.3,0-2.4,1.1-2.4,2.4s1.1,2.4,2.4,2.4h9v1.8c0,1.3,1.1,2.4,2.4,2.4h8.4c1.4,0,2.4-1.1,2.4-2.4v-8.4c0-1.3-1.1-2.4-2.4-2.4ZM157.7,125.5h-3.5v-3.5h3.5v3.5Z"/>
  <path class="cls-1" d="M162.3,174.8c0,1.4-1.1,2.4-2.4,2.4H58.5c-1.3,0-2.4-1.1-2.4-2.4s1.1-2.4,2.4-2.4h6.4v-3c0-1.3,1.1-2.4,2.4-2.4s2.4,1.1,2.4,2.4v3h9.1v-3c0-1.3,1.1-2.4,2.4-2.4s2.4,1.1,2.4,2.4v3h9.1v-3c0-1.3,1.1-2.4,2.4-2.4s2.4,1.1,2.4,2.4v3h9.1v-3c0-1.3,1.1-2.4,2.4-2.4s2.4,1.1,2.4,2.4v3h9.1v-3c0-1.3,1.1-2.4,2.4-2.4s2.4,1.1,2.4,2.4v3h9.1v-3c0-1.3,1.1-2.4,2.4-2.4s2.4,1.1,2.4,2.4v3h9.1v-3c0-1.3,1.1-2.4,2.4-2.4s2.4,1.1,2.4,2.4v3h6c1.3,0,2.4,1.1,2.4,2.4Z"/>
</svg>