<?xml version="1.0" encoding="UTF-8"?>
<svg id="Layer_1" data-name="Layer 1" xmlns="http://www.w3.org/2000/svg" version="1.1" viewBox="0 0 200 200">
  <defs>
    <style>
      .cls-1 {
        fill: #64bebe;
        stroke-width: 0px;
      }
    </style>
  </defs>
  <g id="brainstorm_idea_Brain_mind" data-name="brainstorm, idea, Brain, mind">
    <g>
      <path class="cls-1" d="M120.9,183.8c-13.2,0-23.9-10.9-23.9-24.3V31.2c0-11.8,9.1-21,20.7-21s16.5,5.5,19.6,13.4c1.1-.2,2.3-.3,3.4-.3,11.1,0,20.2,8.6,20.9,19.5,8.8,3.2,14.9,11.8,14.9,21.3s-1.3,3-3,3-3-1.3-3-3c0-7.2-4.8-13.7-11.6-15.9l-1.2-.4c-1.2-.4-2-1.6-2-2.9,0-.2,0-.4,0-.5,0-8.3-6.7-15-15-15s-3.1.2-4.6.7c-.8.3-1.7.2-2.4-.3-.7-.4-1.2-1.1-1.4-1.9-1.5-6.8-7.7-11.7-14.6-11.7s-14.7,6.6-14.7,15v128.3c0,10.3,7.9,18.3,18,18.3s3,1.3,3,3-1.3,3-3,3Z"/>
      <path class="cls-1" d="M183.4,90.4"/>
      <path class="cls-1" d="M122.4,63.3c-.7,0-1.5-.3-2.1-.8-1.2-1.1-1.2-3-.1-4.2,1.2-1.2,1.8-2.9,1.8-4.6s-.6-3.1-1.6-4.3c-1.1-1.3-.9-3.1.3-4.2,1.3-1.1,3.1-.9,4.2.3,2,2.3,3,5.2,3,8.2s-1.2,6.3-3.5,8.7c-.6.6-1.4.9-2.2.9Z"/>
      <path class="cls-1" d="M128.2,52.2c-7,0-12.6-5.7-12.6-12.6s.9-5.5,2.7-7.8c1-1.3,2.9-1.5,4.2-.5s1.5,2.9.5,4.2c-.9,1.2-1.4,2.6-1.4,4.1,0,3.7,3,6.6,6.6,6.6s3.9-.9,5.2-2.5c1-1.3,2.9-1.5,4.2-.4,1.3,1,1.5,2.9.4,4.2-2.4,3-6,4.7-9.8,4.7Z"/>
      <path class="cls-1" d="M154.5,68.3c0,0-.1,0-.2,0-.1,0-.3,0-.4,0-1.7,0-3-1.3-3-3s1.3-3,3-3,.5,0,.8,0c1.6.1,2.9,1.5,2.8,3.2-.1,1.6-1.4,2.8-3,2.8Z"/>
      <path class="cls-1" d="M135,71.7c-1.2,0-2.3-.7-2.8-1.9-.6-1.5.2-3.3,1.7-3.9,1.2-.5,2.5-.7,3.9-.7s3,1.3,3,3-1.3,3-3,3-1.2.1-1.8.3c-.3.1-.7.2-1.1.2Z"/>
      <path class="cls-1" d="M156.9,54c-.4,0-.8,0-1.1-.2-1.5-.6-2.3-2.4-1.6-3.9.7-1.8,1.1-3.7,1.1-5.6,0-8.1-6.6-14.7-14.7-14.7s-3,.2-4.5.7c-1.6.5-3.3-.4-3.8-1.9s.4-3.3,1.9-3.8c2-.6,4.1-1,6.3-1,11.4,0,20.6,9.3,20.6,20.6s-.5,5.4-1.6,7.9c-.5,1.2-1.6,1.8-2.8,1.8Z"/>
      <path class="cls-1" d="M172.8,71.3c-.2,0-.5,0-.7,0-1.6-.4-2.6-2-2.2-3.6.3-1.2.4-2.5.4-3.8,0-7.6-5.4-14.2-12.7-15.9-1.6-.4-2.6-2-2.3-3.6.4-1.6,2-2.6,3.6-2.3,10.1,2.2,17.4,11.4,17.4,21.7s-.2,3.5-.6,5.1c-.3,1.4-1.6,2.3-2.9,2.3Z"/>
      <path class="cls-1" d="M79.1,183.8c-3.8,0-7.7-.9-11.1-2.7l-.7-.3c-2.5.9-5.2,1.4-8,1.4-9.6,0-18-6-21.3-14.9-10.8-.8-19.5-10-19.5-20.9s.6-5.2,1.4-7.6c-3.4-2.8-9.6-9.3-9.6-18.8s2.8-12.9,7.8-17.1c-2.9-3.5-4.5-7.8-4.5-12.5,0-7.9,4.6-14.7,11.6-17.7-1.1-2.7-1.7-5.7-1.7-8.6,0-5.2,1.9-10.4,5.3-14.5,1.1-1.3,2.9-1.4,4.2-.4,1.3,1.1,1.4,2.9.4,4.2-2.5,3-3.9,6.8-3.9,10.6s.9,6.1,2.5,8.8c.5.8.6,1.9.2,2.7-.4.9-1.2,1.6-2.1,1.8-6.2,1.3-10.5,6.7-10.5,13s1.8,7.9,5.1,10.4c.8.6,1.2,1.6,1.1,2.5s-.6,1.9-1.4,2.4c-5.2,3.1-8,8.2-8,14.2,0,9.4,8.9,15.2,9,15.3,1.4.9,1.8,2.7.9,4.1-.8,1.3-1.7,4.5-1.7,6.9,0,8,6.5,14.8,14.6,15,0,0,.2,0,.3,0h.8s0,0,0,0c1.4,0,2.6.9,2.9,2.2,1.9,7.4,8.5,12.5,16.1,12.5s4.7-.5,6.9-1.5c.8-.4,1.8-.3,2.6,0l1.9,1c2.6,1.3,5.5,2.1,8.4,2.1,10.1,0,18-8,18-18.3V31.2c0-8.4-6.4-15-14.7-15s-6.1.9-8.6,2.7c-1.4.9-3.2.6-4.2-.7-.9-1.4-.6-3.2.7-4.2,3.5-2.5,7.7-3.8,12-3.8,11.6,0,20.7,9.2,20.7,21v128.3c0,13.4-10.7,24.3-23.9,24.3Z"/>
      <path class="cls-1" d="M38.4,145.5c-.3,0-.7,0-1-.2-1.5-.6-2.3-2.3-1.8-3.8,1.4-3.6,4-6.6,7.5-8.3,3.2-1.6,6.9-2,10.4-1.1,1.6.4,2.6,2,2.1,3.6s-2,2.6-3.6,2.1c-2.1-.5-4.3-.3-6.3.6-2.1,1-3.7,2.8-4.5,5-.4,1.2-1.6,1.9-2.8,1.9Z"/>
      <path class="cls-1" d="M58.3,139.4c-1.9,0-3.8-.4-5.5-1.1-3.5-1.5-6.2-4.2-7.6-7.7-1.2-3.1-1.4-6.5-.3-9.6.5-1.6,2.2-2.4,3.8-1.9,1.6.5,2.4,2.2,1.9,3.8-.6,1.8-.5,3.7.2,5.5.8,2,2.4,3.6,4.4,4.4s4.2.9,6.2,0c1.4-.6,2.6-1.5,3.5-2.7,1-1.3,2.8-1.6,4.2-.7,1.3,1,1.6,2.8.7,4.2-1.6,2.1-3.7,3.8-6.1,4.8-1.7.7-3.5,1-5.3,1Z"/>
      <path class="cls-1" d="M69.7,112.1c-1.2,0-2.3-.7-2.8-1.9-.8-2-2.3-3.7-4.2-4.7-2.1-1.1-4.5-1.4-6.7-.7-1.6.4-3.2-.5-3.7-2.1-.4-1.6.5-3.2,2.1-3.7,3.7-1,7.7-.6,11.1,1.2,3.2,1.7,5.7,4.5,7,7.8.6,1.5-.2,3.3-1.7,3.9-.4.1-.7.2-1.1.2Z"/>
      <path class="cls-1" d="M80.8,122h0c-2.6,0-5.2-.8-7.4-2.2-6.6-4.1-8.6-12.9-4.4-19.5,1.8-2.8,4.4-4.9,7.6-5.9,1.6-.5,3.3.3,3.8,1.9.5,1.6-.3,3.3-1.9,3.8-1.8.6-3.3,1.8-4.4,3.4-2.4,3.8-1.2,8.8,2.6,11.2,1.3.8,2.8,1.2,4.3,1.3,1.7,0,3,1.4,3,3,0,1.6-1.3,3-3,3Z"/>
      <path class="cls-1" d="M77.9,63.3c-.8,0-1.6-.3-2.2-.9-2.2-2.4-3.5-5.4-3.5-8.7s1.1-5.9,3-8.2c1.1-1.3,3-1.4,4.2-.3,1.3,1.1,1.4,3,.3,4.2-1,1.2-1.6,2.7-1.6,4.3s.6,3.3,1.8,4.6c1.1,1.2,1.1,3.1-.1,4.2-.6.5-1.3.8-2.1.8Z"/>
      <path class="cls-1" d="M72,52.2c-3.8,0-7.4-1.7-9.8-4.7-1-1.3-.8-3.2.4-4.2,1.3-1,3.2-.8,4.2.4,1.3,1.6,3.2,2.5,5.2,2.5,3.7,0,6.6-3,6.6-6.6s-.5-2.9-1.4-4.1c-1-1.3-.8-3.2.5-4.2,1.3-1,3.2-.8,4.2.5,1.7,2.2,2.7,4.9,2.7,7.8,0,7-5.7,12.6-12.6,12.6Z"/>
      <path class="cls-1" d="M54.7,76.6c-1.7,0-3-1.3-3-3,0-3-2.4-5.4-5.4-5.4s-.3,0-.4,0c-1.7.1-3.1-1.1-3.2-2.8-.1-1.6,1.1-3.1,2.8-3.2.3,0,.5,0,.8,0,6.3,0,11.3,5.1,11.3,11.3s-1.3,3-3,3Z"/>
      <path class="cls-1" d="M59.7,86.7c-.3,0-.7,0-1-.2-4.4-1.6-7.3-5.7-7.3-10.4s4.9-11,11-11,2.6.2,3.9.7c1.5.6,2.3,2.3,1.7,3.9s-2.3,2.3-3.9,1.7c-.6-.2-1.2-.3-1.8-.3-2.8,0-5,2.3-5,5s1.3,4,3.3,4.7c1.6.6,2.4,2.3,1.8,3.8-.4,1.2-1.6,2-2.8,2Z"/>
      <path class="cls-1" d="M68.3,165.8c-5.7,0-10.9-3.4-13.1-8.7-.6-1.5,0-3.3,1.6-3.9,1.5-.6,3.3,0,3.9,1.6,1.3,3.1,4.3,5,7.6,5s8.2-3.7,8.2-8.2,1.3-3,3-3,3,1.3,3,3c0,7.8-6.4,14.2-14.2,14.2Z"/>
      <path class="cls-1" d="M43.3,54c-1.2,0-2.3-.7-2.8-1.8-1-2.5-1.6-5.2-1.6-7.9,0-11.4,9.3-20.6,20.6-20.6s4.3.3,6.3,1c1.6.5,2.4,2.2,1.9,3.8-.5,1.6-2.2,2.4-3.8,1.9-1.4-.5-2.9-.7-4.5-.7-8.1,0-14.7,6.6-14.7,14.7s.4,3.8,1.1,5.6c.6,1.5,0,3.3-1.6,3.9-.4.2-.8.2-1.1.2Z"/>
      <path class="cls-1" d="M34.2,81.9c-.7,0-1.3-.2-1.9-.6-5.4-4.2-8.4-10.6-8.4-17.5s1.8-10.1,5-14c1-1.3,2.9-1.5,4.2-.4,1.3,1,1.5,2.9.4,4.2-2.4,2.9-3.6,6.5-3.6,10.2s2.3,9.7,6.2,12.8c1.3,1,1.5,2.9.5,4.2-.6.7-1.5,1.1-2.3,1.1Z"/>
      <path class="cls-1" d="M39.8,167.3c-11.6,0-21-9.4-21-21s2.2-10.9,6.1-14.8c1.2-1.2,3.1-1.2,4.2,0,1.2,1.2,1.2,3.1,0,4.2-2.8,2.8-4.4,6.6-4.4,10.6,0,8.3,6.7,15,15,15s3,1.3,3,3-1.3,3-3,3Z"/>
      <path class="cls-1" d="M24.4,140.2c-.4,0-.9-.1-1.3-.3-7.6-3.8-12.3-11.4-12.3-19.9,0-12.3,10-22.2,22.2-22.2s.6,0,.9,0c1.7,0,2.9,1.4,2.9,3.1,0,1.7-1.5,2.9-3.1,2.9-.2,0-.5,0-.7,0-9,0-16.3,7.3-16.3,16.3s3.5,11.8,9,14.6c1.5.7,2.1,2.5,1.3,4-.5,1-1.6,1.7-2.7,1.7Z"/>
      <path class="cls-1" d="M100,85c-1.7,0-3-1.3-3-3V28.2c0-1.7,1.3-3,3-3s3,1.3,3,3v53.9c0,1.7-1.3,3-3,3Z"/>
      <path class="cls-1" d="M109.7,57.2c-.5,0-.9-.1-1.4-.3-7-3.6-11.3-10.7-11.3-18.6s1.3-3,3-3,3,1.3,3,3c0,5.6,3.1,10.7,8.1,13.3,1.5.8,2,2.6,1.3,4-.5,1-1.6,1.6-2.7,1.6Z"/>
      <path class="cls-1" d="M88.2,144.9c-1.2,0-2.4-.8-2.8-2-.6-1.6.2-3.3,1.8-3.8,5.9-2.1,9.9-7.8,9.9-14.1s1.3-3,3-3,3,1.3,3,3c0,8.8-5.5,16.7-13.8,19.7-.3.1-.7.2-1,.2Z"/>
      <path class="cls-1" d="M100,88c-1.7,0-3-1.3-3-3,0-6.3-4-11.9-9.9-14.1-1.6-.6-2.4-2.3-1.8-3.8.6-1.6,2.3-2.4,3.8-1.8,8.3,3,13.8,10.9,13.8,19.7s-1.3,3-3,3Z"/>
      <path class="cls-1" d="M150.7,162.8c-1.7,0-3-1.3-3-3v-15c0-.5.1-.9.3-1.3l9.8-19.6h-16.1c-1.7,0-3-1.3-3-3s1.3-3,3-3h16.1c2.1,0,4,1.1,5.1,2.8s1.2,4,.3,5.8l-9.5,19v14.3c0,1.7-1.3,3-3,3Z"/>
      <path class="cls-1" d="M162.7,171.8h-23.9c-1.7,0-3-1.3-3-3v-9.2c0-4.9-2.6-9.6-6.9-12.6-13-8.8-19.3-24.6-16.2-40.1,3-14.9,14.9-27,29.7-30.1,11.8-2.5,23.7.4,32.9,7.8,9.1,7.4,14.4,18.4,14.4,30.2s-6.5,25.1-17.4,32.3c-4.1,2.7-6.6,7.4-6.6,12.3v9.2c0,1.7-1.3,3-3,3ZM141.8,165.8h18v-6.2c0-7,3.5-13.5,9.3-17.3,9.2-6.1,14.7-16.4,14.7-27.4s-4.4-19.3-12.2-25.6c-7.7-6.3-17.9-8.7-27.9-6.6-12.5,2.6-22.6,12.8-25.1,25.4-2.7,13.4,2.6,26.4,13.7,34,6,4,9.5,10.6,9.5,17.5v6.2Z"/>
      <path class="cls-1" d="M156.7,189.8h-12c-5,0-9-4-9-9v-12c0-1.7,1.3-3,3-3h23.9c1.7,0,3,1.3,3,3v12c0,5-4,9-9,9ZM141.8,171.8v9c0,1.6,1.3,3,3,3h12c1.6,0,3-1.3,3-3v-9h-18Z"/>
    </g>
  </g>
</svg>