<?xml version="1.0" encoding="UTF-8"?>
<svg id="Layer_1" data-name="Layer 1" xmlns="http://www.w3.org/2000/svg" version="1.1" viewBox="0 0 200 200">
  <defs>
    <style>
      .cls-1 {
        fill: #64bebe;
      }

      .cls-1, .cls-2 {
        stroke-width: 0px;
      }

      .cls-2 {
        fill: #464646;
      }
    </style>
  </defs>
  <circle class="cls-1" cx="121" cy="139.2" r="2.8"/>
  <circle class="cls-1" cx="45.4" cy="69.2" r="2.8"/>
  <circle class="cls-1" cx="45.4" cy="80.4" r="2.8"/>
  <path class="cls-2" d="M109.8,170H37.6l14.7-16.8h21.1c1.5,0,2.8-1.3,2.8-2.8s-1.3-2.8-2.8-2.8h-22.4c-.8,0-1.6.3-2.1,1l-14.7,16.8V46.8h25.2v14c0,1.5,1.3,2.8,2.8,2.8h11.2c1.5,0,2.8-1.3,2.8-2.8v-14h33.6v14c0,1.5,1.3,2.8,2.8,2.8h11.2c1.5,0,2.8-1.3,2.8-2.8v-14h25.2v81.1c0,1.5,1.3,2.8,2.8,2.8s2.8-1.3,2.8-2.8V44c0-1.5-1.3-2.8-2.8-2.8h-28.1c-.6-7.9-4-15.3-9.7-20.9-6.3-6.3-14.8-9.8-23.7-9.8-17.6,0-32,13.6-33.4,30.8h-28.1c-1.5,0-2.8,1.3-2.8,2.8v128.7c0,1.5,1.3,2.8,2.8,2.8h78.3c1.5,0,2.8-1.3,2.8-2.8s-1.3-2.8-2.8-2.8ZM76.5,41.2c.6-3.4,2.2-6.6,4.7-9.1,3.2-3.2,7.4-4.9,11.9-4.9,8.3,0,15.2,6.1,16.5,14h-33.1ZM93,16.1c7.5,0,14.5,2.9,19.8,8.2,5.3,5.3,8.2,12.3,8.2,19.8v14h-5.6v-14c0-12.3-10-22.4-22.4-22.4s-11.6,2.3-15.8,6.6c-4.2,4.2-6.6,9.8-6.6,15.8v14h-5.6v-14c0-15.4,12.6-28,28-28Z"/>
  <path class="cls-1" d="M42.6,91.6v30.8c0,1.5,1.3,2.8,2.8,2.8s2.8-1.3,2.8-2.8v-30.8c0-1.5-1.3-2.8-2.8-2.8s-2.8,1.3-2.8,2.8Z"/>
  <path class="cls-1" d="M170.5,174.5l-13.5-13.5,13.5-13.5c.7-.7,1-1.7.8-2.6-.2-.9-.9-1.7-1.8-2l-64.4-23.2c-1-.4-2.2-.1-2.9.7-.8.8-1,1.9-.7,2.9l23.2,64.4c.3.9,1.1,1.6,2,1.8.2,0,.4,0,.6,0,.7,0,1.4-.3,2-.8l13.5-13.5,13.5,13.5c1.1,1.1,2.9,1.1,4,0l5.1-5.1,5.1-5.1c1.1-1.1,1.1-2.9,0-4ZM158.3,182.8l-13.5-13.5c-.5-.5-1.3-.8-2-.8s-1.4.3-2,.8l-12.3,12.3-19.7-54.6,54.6,19.7-12.3,12.3c-1.1,1.1-1.1,2.9,0,4l13.5,13.5-6.3,6.3Z"/>
  <path class="cls-2" d="M104.2,108.4c5.9,0,11.2,3.7,13.2,9.3.5,1.5,2.1,2.2,3.6,1.7,1.5-.5,2.2-2.1,1.7-3.6-2.8-7.8-10.2-13.1-18.5-13.1s-19.6,8.8-19.6,19.6,5.2,15.7,13.1,18.5c.3.1.6.2.9.2,1.2,0,2.2-.7,2.6-1.9.5-1.5-.2-3.1-1.7-3.6-5.6-2-9.3-7.3-9.3-13.2s6.3-14,14-14Z"/>
  <path class="cls-2" d="M132.2,122.4c0,1.5,1.3,2.8,2.8,2.8s2.8-1.3,2.8-2.8c0-18.5-15.1-33.6-33.6-33.6s-33.6,15.1-33.6,33.6,7.7,25.1,19.6,30.5c4.4,2,9.1,3.1,14,3.1s2.8-1.3,2.8-2.8-1.3-2.8-2.8-2.8c-4.1,0-8-.9-11.7-2.5-9.9-4.5-16.3-14.5-16.3-25.4,0-15.4,12.6-28,28-28s28,12.6,28,28Z"/>
  <path class="cls-1" d="M131.4,145.6c-1.1-1.1-2.9-1.1-4,0-1.1,1.1-1.1,2.9,0,4l11.2,11.2c.5.5,1.3.8,2,.8s1.4-.3,2-.8c1.1-1.1,1.1-2.9,0-4l-11.2-11.2Z"/>
</svg>