<?xml version="1.0" encoding="UTF-8"?>
<svg id="Layer_1" data-name="Layer 1" xmlns="http://www.w3.org/2000/svg" version="1.1" viewBox="0 0 200 200">
  <defs>
    <style>
      .cls-1 {
        fill: #64bebe;
      }

      .cls-1, .cls-2 {
        stroke-width: 0px;
      }

      .cls-2 {
        fill: #464646;
      }
    </style>
  </defs>
  <path class="cls-2" d="M169,111c-10.7,0-19.3-8.7-19.3-19.3s8.7-19.3,19.3-19.3,19.3,8.7,19.3,19.3-8.7,19.3-19.3,19.3ZM169,77.9c-7.6,0-13.8,6.2-13.8,13.8s6.2,13.8,13.8,13.8,13.8-6.2,13.8-13.8-6.2-13.8-13.8-13.8Z"/>
  <rect class="cls-2" x="166.3" y="108.3" width="5.5" height="38.7"/>
  <path class="cls-2" d="M31,111c-10.7,0-19.3-8.7-19.3-19.3s8.7-19.3,19.3-19.3,19.3,8.7,19.3,19.3-8.7,19.3-19.3,19.3ZM31,77.9c-7.6,0-13.8,6.2-13.8,13.8s6.2,13.8,13.8,13.8,13.8-6.2,13.8-13.8-6.2-13.8-13.8-13.8Z"/>
  <rect class="cls-2" x="28.2" y="108.3" width="5.5" height="38.7"/>
  <polygon class="cls-2" points="135.9 133.1 64.1 133.1 64.1 94.5 91.7 94.5 91.7 100 69.6 100 69.6 127.6 130.4 127.6 130.4 100 108.3 100 108.3 94.5 135.9 94.5 135.9 133.1"/>
  <rect class="cls-2" x="86.2" y="111" width="5.5" height="5.5"/>
  <rect class="cls-2" x="97.2" y="111" width="5.5" height="5.5"/>
  <rect class="cls-2" x="108.3" y="111" width="5.5" height="5.5"/>
  <path class="cls-2" d="M100,188.4c-10.7,0-19.3-8.7-19.3-19.3s8.7-19.3,19.3-19.3,19.3,8.7,19.3,19.3-8.7,19.3-19.3,19.3ZM100,155.2c-7.6,0-13.8,6.2-13.8,13.8s6.2,13.8,13.8,13.8,13.8-6.2,13.8-13.8-6.2-13.8-13.8-13.8Z"/>
  <rect class="cls-2" x="97.2" y="133.1" width="5.5" height="19.3"/>
  <path class="cls-2" d="M72.4,188.4H11.6v-44.2h60.7v44.2ZM17.2,182.8h49.7v-33.1H17.2v33.1Z"/>
  <rect class="cls-2" x="39.3" y="124.8" width="5.5" height="19.3"/>
  <rect class="cls-2" x="39.3" y="122.1" width="24.8" height="5.5"/>
  <rect class="cls-2" x="33.7" y="163.5" width="5.5" height="5.5"/>
  <rect class="cls-2" x="44.8" y="163.5" width="5.5" height="5.5"/>
  <rect class="cls-2" x="155.2" y="124.8" width="5.5" height="19.3"/>
  <rect class="cls-2" x="135.9" y="122.1" width="24.8" height="5.5"/>
  <rect class="cls-2" x="149.7" y="163.5" width="5.5" height="5.5"/>
  <rect class="cls-2" x="160.7" y="163.5" width="5.5" height="5.5"/>
  <path class="cls-2" d="M100,89c-10.7,0-19.3-8.7-19.3-19.3s8.7-19.3,19.3-19.3,19.3,8.7,19.3,19.3-8.7,19.3-19.3,19.3ZM100,55.8c-7.6,0-13.8,6.2-13.8,13.8s6.2,13.8,13.8,13.8,13.8-6.2,13.8-13.8-6.2-13.8-13.8-13.8Z"/>
  <rect class="cls-2" x="97.2" y="83.4" width="5.5" height="16.6"/>
  <path class="cls-2" d="M66.9,44.8h-22.1v-22.1h22.1v22.1ZM50.3,39.3h11v-11h-11v11Z"/>
  <polygon class="cls-2" points="66.9 105.5 53.1 105.5 53.1 53.1 58.6 53.1 58.6 100 66.9 100 66.9 105.5"/>
  <rect class="cls-2" x="53.1" y="31" width="5.5" height="5.5"/>
  <path class="cls-2" d="M155.2,44.8h-22.1v-22.1h22.1v22.1ZM138.7,39.3h11v-11h-11v11Z"/>
  <polygon class="cls-2" points="146.9 105.5 133.1 105.5 133.1 100 141.4 100 141.4 55.8 146.9 55.8 146.9 105.5"/>
  <rect class="cls-2" x="141.4" y="31" width="5.5" height="5.5"/>
  <path class="cls-1" d="M169,100c-4.6,0-8.3-3.7-8.3-8.3s3.7-8.3,8.3-8.3,8.3,3.7,8.3,8.3-3.7,8.3-8.3,8.3ZM169,89c-1.5,0-2.8,1.2-2.8,2.8s1.2,2.8,2.8,2.8,2.8-1.2,2.8-2.8-1.2-2.8-2.8-2.8Z"/>
  <path class="cls-1" d="M31,100c-4.6,0-8.3-3.7-8.3-8.3s3.7-8.3,8.3-8.3,8.3,3.7,8.3,8.3-3.7,8.3-8.3,8.3ZM31,89c-1.5,0-2.8,1.2-2.8,2.8s1.2,2.8,2.8,2.8,2.8-1.2,2.8-2.8-1.2-2.8-2.8-2.8Z"/>
  <path class="cls-1" d="M100,180.1c-6.1,0-11-5-11-11s5-11,11-11,11,5,11,11-5,11-11,11ZM100,163.5c-3,0-5.5,2.5-5.5,5.5s2.5,5.5,5.5,5.5,5.5-2.5,5.5-5.5-2.5-5.5-5.5-5.5Z"/>
  <path class="cls-1" d="M61.3,177.3H22.7v-22.1h38.7v22.1ZM28.2,171.8h27.6v-11h-27.6v11Z"/>
  <g>
    <path class="cls-1" d="M188.4,188.4h-60.7v-44.2h60.7v44.2ZM133.1,182.8h49.7v-33.1h-49.7v33.1Z"/>
    <path class="cls-1" d="M177.3,177.3h-38.7v-22.1h38.7v22.1ZM144.2,171.8h27.6v-11h-27.6v11Z"/>
  </g>
  <path class="cls-1" d="M100,77.9c-4.6,0-8.3-3.7-8.3-8.3s3.7-8.3,8.3-8.3,8.3,3.7,8.3,8.3-3.7,8.3-8.3,8.3ZM100,66.9c-1.5,0-2.8,1.2-2.8,2.8s1.2,2.8,2.8,2.8,2.8-1.2,2.8-2.8-1.2-2.8-2.8-2.8Z"/>
  <path class="cls-1" d="M77.9,55.8h-44.2V11.6h44.2v44.2ZM39.3,50.3h33.1V17.2h-33.1v33.1Z"/>
  <path class="cls-1" d="M166.3,55.8h-44.2V11.6h44.2v44.2ZM127.6,50.3h33.1V17.2h-33.1v33.1Z"/>
</svg>