<?xml version="1.0" encoding="UTF-8"?>
<svg id="Layer_1" data-name="Layer 1" xmlns="http://www.w3.org/2000/svg" version="1.1" viewBox="0 0 200 200">
  <defs>
    <style>
      .cls-1 {
        fill: #64bebe;
      }

      .cls-1, .cls-2 {
        stroke-width: 0px;
      }

      .cls-2 {
        fill: #464646;
      }
    </style>
  </defs>
  <path class="cls-2" d="M178.3,186.3H21.7c-9.9,0-18-8.1-18-18v-3.1c0-1.6,1.3-2.9,2.9-2.9h186.8c1.6,0,2.9,1.3,2.9,2.9v3.1c0,9.9-8.1,18-18,18ZM9.5,168.1h0c0,6.9,5.5,12.3,12.2,12.3h156.6c6.7,0,12.2-5.5,12.2-12.2h0c0-.1-181-.1-181-.1Z"/>
  <g>
    <path class="cls-2" d="M173.8,168.1H25.9c-1.6,0-2.9-1.3-2.9-2.9v-94.5c0-1.6,1.3-2.9,2.9-2.9s2.9,1.3,2.9,2.9v91.6h142.1v-91.6c0-1.6,1.3-2.9,2.9-2.9s2.9,1.3,2.9,2.9v94.5c0,1.6-1.3,2.9-2.9,2.9Z"/>
    <path class="cls-2" d="M173.8,73.6c-.6,0-1.2-.2-1.7-.6l-18.5-13.3c-1.3-.9-1.6-2.8-.7-4.1.9-1.3,2.8-1.6,4.1-.7l18.5,13.3c1.3.9,1.6,2.8.7,4.1-.6.8-1.5,1.2-2.4,1.2Z"/>
    <path class="cls-2" d="M74.2,38.7c-.9,0-1.8-.4-2.4-1.2-.9-1.3-.7-3.1.7-4.1l27.3-19.7,27.3,19.7c1.3.9,1.6,2.8.7,4.1-.9,1.3-2.8,1.6-4.1.7l-23.9-17.3-23.9,17.3c-.5.4-1.1.6-1.7.6Z"/>
    <path class="cls-2" d="M25.9,73.6c-.9,0-1.8-.4-2.4-1.2-.9-1.3-.7-3.1.7-4.1l18.5-13.4c1.3-.9,3.1-.6,4.1.7.9,1.3.7,3.1-.7,4.1l-18.5,13.4c-.5.4-1.1.6-1.7.6Z"/>
    <path class="cls-2" d="M49.8,90.9c-.6,0-1.2-.2-1.7-.6l-24-17.3c-1.3-.9-1.6-2.8-.7-4.1.9-1.3,2.8-1.6,4.1-.7l24,17.3c1.3.9,1.6,2.8.7,4.1-.6.8-1.5,1.2-2.4,1.2Z"/>
    <path class="cls-2" d="M167.9,78.3c-.9,0-1.7-.4-2.3-1.1-1-1.3-.8-3.1.5-4.1l5.9-4.7c1.3-1,3.1-.8,4.1.5,1,1.3.8,3.1-.5,4.1l-5.9,4.7c-.5.4-1.2.6-1.8.6Z"/>
    <path class="cls-2" d="M25.9,168.1c-.9,0-1.8-.4-2.4-1.2-.9-1.3-.6-3.1.7-4.1l38.2-27.3c1.3-.9,3.1-.6,4.1.7.9,1.3.6,3.1-.7,4.1l-38.2,27.3c-.5.4-1.1.5-1.7.5Z"/>
    <path class="cls-2" d="M173.8,168.1c-.6,0-1.2-.2-1.7-.6l-24.7-18c-1.3-.9-1.6-2.8-.6-4.1.9-1.3,2.8-1.6,4.1-.6l24.7,18c1.3.9,1.6,2.8.6,4.1-.6.8-1.5,1.2-2.4,1.2Z"/>
  </g>
  <path class="cls-2" d="M44.4,86c-1.6,0-2.9-1.3-2.9-2.9v-50.2h116.8v38.5c0,1.6-1.3,2.9-2.9,2.9s-2.9-1.3-2.9-2.9v-32.7H47.3v44.3c0,1.6-1.3,2.9-2.9,2.9Z"/>
  <path class="cls-2" d="M118.3,64.2h-37c-1.6,0-2.9-1.3-2.9-2.9s1.3-2.9,2.9-2.9h37c1.6,0,2.9,1.3,2.9,2.9s-1.3,2.9-2.9,2.9Z"/>
  <path class="cls-1" d="M55.5,118.6h0c-1.6,0-2.9-1.4-2.9-3l.3-21.5c0-1.6,1.3-2.9,2.9-2.9h0c1.6,0,2.9,1.4,2.9,3l-.3,21.5c0,1.6-1.3,2.9-2.9,2.9Z"/>
  <g>
    <path class="cls-1" d="M89.2,125h0l-23.3-.4c-1.6,0-2.9-1.4-2.9-3l.5-32.2c0-.8.3-1.5.9-2,.6-.5,1.3-.9,2.1-.8l23.3.4c1.6,0,2.9,1.4,2.9,3l-.5,32.2c0,.8-.3,1.5-.9,2-.5.5-1.3.8-2,.8ZM68.9,118.9l17.4.3.4-26.4-17.4-.3-.4,26.4Z"/>
    <path class="cls-1" d="M135.5,141.9c-.3,0-.7,0-1-.2l-46.3-16.9c-1.2-.4-1.9-1.5-1.9-2.8l.5-32.2c0-1.2.8-2.3,1.9-2.7l46.9-17.2c.9-.3,1.9-.2,2.7.4.8.6,1.2,1.5,1.2,2.4l-1.1,66.3c0,.9-.5,1.8-1.3,2.4-.5.3-1.1.5-1.7.5ZM92.1,120.1l40.5,14.8.9-57.9-41,15-.5,28.2Z"/>
    <path class="cls-1" d="M73.7,147.7c-1.4,0-2.6-1-2.9-2.4l-3.9-22.5,5.8-1,3.4,19.7,4.9-.8-2.5-17.8,5.8-.8,2.9,20.6c.2,1.6-.9,3-2.4,3.3l-10.6,1.7c-.2,0-.3,0-.5,0Z"/>
  </g>
  <g>
    <path class="cls-1" d="M150.9,90.2c-1,0-1.9-.5-2.5-1.4-.9-1.4-.4-3.2.9-4l8.7-5.5c1.4-.9,3.2-.4,4,.9.9,1.4.4,3.2-.9,4l-8.7,5.5c-.5.3-1,.4-1.5.4Z"/>
    <path class="cls-1" d="M158.4,133.7c-.6,0-1.1-.2-1.6-.5l-8.5-5.8c-1.3-.9-1.7-2.7-.8-4.1.9-1.3,2.7-1.7,4.1-.8l8.5,5.8c1.3.9,1.7,2.7.8,4.1-.6.8-1.5,1.3-2.4,1.3Z"/>
  </g>
  <path class="cls-1" d="M159.2,108.4h-8.7c-1.6-.1-2.9-1.5-2.9-3.1,0-1.6,1.3-2.9,3-2.9h8.6c1.6.1,2.9,1.5,2.9,3.1,0,1.6-1.3,2.9-2.9,2.9Z"/>
</svg>