<?xml version="1.0" encoding="UTF-8"?>
<svg id="Layer_1" data-name="Layer 1" xmlns="http://www.w3.org/2000/svg" version="1.1" viewBox="0 0 200 200">
  <defs>
    <style>
      .cls-1 {
        fill: #64bebe;
      }

      .cls-1, .cls-2 {
        stroke-width: 0px;
      }

      .cls-2 {
        fill: #464646;
      }
    </style>
  </defs>
  <path class="cls-1" d="M91.2,75l3,17.2h0c0,0,0,.1,0,.1l16.8,79.9H15l15.4-75.5h48c3.1,0,5.8-2.7,5.8-5.8s-2.7-5.8-5.8-5.8h-45.8l2.1-10.1h56.5M50.6,126c-.5.7-.9,1.4-1.3,2.1l-8.3,2.3c-4.2,1-7.7,4.1-9.3,8.2h0c0,0,0,.1,0,.1-1.5,4.4-1.1,8.6,1,12.1,2.4,4.5,6.8,7.1,12.1,7.1s7.2-1.5,9.7-3.8l6.4-6c.5,0,1,0,1.3,0s.8,0,1.3,0l6.4,6c2.5,2.5,6,3.8,9.7,3.8s9.5-2.7,12-7c2.2-3.2,2.6-7.7,1.1-12.3h0c0,0,0-.1,0-.1-1.4-3.8-4.7-6.7-9-8.2h0s0,0,0,0l-8.5-2.3c-.3-.7-.8-1.4-1.2-2l2-8.2c1.4-4.2.5-8.6-2.4-12.1-2.4-3.2-6.6-5.3-11.1-5.3s-8.8,2.1-11.2,5.4c-2.4,3.4-3.3,7.7-2.4,11.7h0s0,0,0,0l2,8.3M94.3,71.3H31.7l-3.9,18.5c.4-.7,1.1-1,2.1-1h48.5c1.1,0,2.1,1,2.1,2.1s-1.1,2.1-2.1,2.1H29.9c-1.1,0-2.1-1-2.1-2.1l-17.3,85h105.1l-17.7-84.3-3.5-20.3h0ZM44.8,154.2c-3.9,0-7.1-1.7-8.8-5.2-1.8-2.8-1.8-5.9-.7-9.1,1.1-2.8,3.5-5.2,6.7-5.9l10.3-2.8c.4-1.7,1.4-3.2,2.5-4.2l-2.5-10.1c-.7-3.1,0-6.3,1.8-8.7,1.8-2.5,5-3.8,8.1-3.8s6.4,1.4,8.1,3.8c2.1,2.5,2.8,5.6,1.8,8.7l-2.5,10.1c1.1,1,2.1,2.8,2.5,4.2l10.3,2.8c3.2,1,5.7,3.1,6.7,5.9,1.1,3.1,1.1,6.6-.7,9.1-1.8,3.2-5.3,5.2-8.8,5.2s-5.3-1-7.1-2.8l-7.8-7.4c-.7.4-1.8.4-2.5.4s-1.8,0-2.5-.4l-7.8,7.4c-1.8,1.7-4.6,2.8-7.1,2.8h0Z"/>
  <rect class="cls-2" x="32" y="54.2" width="61.9" height="13.3"/>
  <rect class="cls-2" x="9.7" y="180.8" width="106.2" height="13.3"/>
  <polygon class="cls-2" points="129.7 93.4 102.8 93.4 120.2 176.6 150.6 176.6 129.7 93.4"/>
  <path class="cls-1" d="M58.2,124.1c1.1-.4,2.5-.7,3.5-.7h1.1c1.1,0,1.8.3,2.8.7l2.1-8.7c.4-1.7,0-3.5-1.1-4.9-1.1-1.4-2.8-2.1-4.6-2.1s-3.5.7-4.6,2.1c-1.1,1.4-1.4,3.2-1.1,4.9l1.8,8.7Z"/>
  <path class="cls-1" d="M67.8,133.2h0c-.4-1.7-1.1-3.2-2.1-3.8h0c-.7-.7-1.8-1.1-2.8-1.4h-1.4c-1.1,0-2.1.7-3.2,1.4h0c-1.1,1-1.8,2.1-2.1,3.5v1c0,1.7.7,3.1,1.8,4.2.7.7,1.4,1,2.1,1.4.7.4,1.4.4,2.1.4,1.1,0,1.8-.4,2.8-.7.7-.4,1.4-1,2.1-1.4.4-.3.4-.7.7-1h0c.4-.7.7-1.7.7-2.8v-.4c-.4,0-.7,0-.7-.3Z"/>
  <path class="cls-1" d="M52.6,138.5s0-.3,0,0c0-.3-.4-.3-.4-.3-.4-.7-.4-1.4-.7-2.1l-8.5,2.5c-1.8.3-3.2,1.7-3.9,3.5-.7,1.7-.7,3.5.4,5.2,1.1,1.7,2.8,2.8,5.3,2.8s2.8-.7,4.2-1.7l6.7-6.3c-1.8-1-2.5-2.1-3.2-3.5Z"/>
  <path class="cls-1" d="M80.9,138.5l-8.9-2.5c0,1-.4,1.7-1.1,2.8,0,.4-.4.4-.4.7h0l-.4.4-.4.3h0l-.4.3-.4.4h0q-.4.3-.7.7l6.7,6.3c1.1,1,2.5,1.7,4.2,1.7s3.9-1,5.3-2.8c1.1-1.4,1.1-3.5.4-5.2-1.1-1.4-2.5-2.8-4.2-3.2Z"/>
  <path class="cls-2" d="M175.8,5.9c-5.7,0-11,3.2-13.8,8.1-.4.7-.7,1-1.4,1s-1.4,0-1.8-.4c-4.2-2.8-8.9-4.5-14.2-4.5s-7.8,1-11.3,2.8c-1.1.4-2.1.4-2.8-.7-2.8-3.9-7.8-6.3-12.7-6.3s-9.9,2.5-12.7,6.6c-.4.7-1.1,1-2.1,1s-1.4-.7-1.8-1.4c-1.8-3.9-5.7-6.3-9.9-6.3s-10.6,4.6-11,10.1c0,.7-.7,1.4-1.4,1.7-.7.3-1.8,0-2.5-.3-2.1-1.7-4.6-2.8-7.4-2.8-6,0-11,4.9-11,10.8s5,10.8,11,10.8,10.6-4.5,11-10.1c0-.7.7-1.4,1.4-1.7.7-.4,1.8,0,2.5.3,2.1,1.7,4.6,2.8,7.4,2.8s5.7-1,7.8-3.1c.7-.7,1.4-.7,2.1-.7.7.3,1.4.7,1.4,1.4,1.8,6.6,8.1,11.2,14.9,11.2h0c1.1,0,2.1.7,2.1,1.7,2.1,11.5,12,19.9,24.1,19.9s22.3-8.7,24.1-20.6c0-.7.4-1,1.1-1.4.7-.4,1.1-.4,1.8-.4,1.4.4,2.8.7,4.2.7,8.5,0,15.6-7,15.6-15.4s-6-15-14.5-15Z"/>
  <rect class="cls-2" x="155.9" y="180.8" width="26.5" height="13.3"/>
  <rect class="cls-2" x="120.5" y="180.8" width="31.1" height="13.3"/>
  <path class="cls-1" d="M158.2,114.6l18.2,58.4h-18.2l-14.4-58.4h14.5M160.9,110.8h-21.9l16.3,65.8h26.2l-20.5-65.8h0Z"/>
</svg>