<?xml version="1.0" encoding="UTF-8"?>
<svg id="Layer_1" data-name="Layer 1" xmlns="http://www.w3.org/2000/svg" version="1.1" viewBox="0 0 200 200">
  <defs>
    <style>
      .cls-1 {
        fill: #64bebe;
      }

      .cls-1, .cls-2 {
        stroke-width: 0px;
      }

      .cls-2 {
        fill: #464646;
      }
    </style>
  </defs>
  <path class="cls-1" d="M82.4,150.9v20.2h20.2v-20.2h-20.2ZM98.1,166.5h-11.1v-11.1h11.1v11.1Z"/>
  <path class="cls-1" d="M112.3,150.9v20.2h20.2v-20.2h-20.2ZM127.9,166.5h-11.1v-11.1h11.1v11.1Z"/>
  <path class="cls-1" d="M174.2,21.1c-.8,0-1.6,0-2.3.1-3.3-3.4-7.8-5.3-12.5-5.3-9.1,0-16.6,7.1-17.3,16-4.7,1.9-7.9,6.3-8.6,11.3h4.6c.7-3.5,3.3-6.5,6.8-7.5l1.7-.7v-1.8c0-7.1,5.7-12.8,12.8-12.8s7.4,1.7,9.9,4.6l.4.4s0,0,0,0c1.7,2.2,2.6,4.9,2.6,7.8h4.5c0-2.8-.7-5.4-1.8-7.7,7.6.4,13.7,6.7,13.7,14.5s-6.5,14.5-14.5,14.5h-18.2v4.6h18.2c10.5,0,19-8.5,19-19s-8.5-19-19-19Z"/>
  <path class="cls-2" d="M122.5,137h-55c.9,1.5,1.7,3,2.3,4.6h73.5v38.9H53.1c8.3-5.2,13.9-14.5,13.9-25.1s-6.4-21.5-16.4-26.5v-15.1h-11v-29.8c0-2.1,1.7-3.8,3.8-3.8h47.8c2.1,0,3.8,1.7,3.8,3.8v29.8h-14.6v17.5h4.6v-13h24.6v13h4.6v-17.5h-14.6v-29.8c0-4.6-3.7-8.3-8.3-8.3h-47.8c-4.6,0-8.3,3.7-8.3,8.3v29.8h-11v15.1c-10,5-16.4,15.2-16.4,26.5s5.6,19.8,13.9,25.1H7.8v4.6h140.1V51.4h-25.4v85.6ZM26.9,132.6h10.4v-4.6h-8.7v-9.8h17.4v13.5l1.4.6c8.4,3.7,14.1,11.7,14.9,20.7H12.4c.8-8.9,6.3-16.7,14.5-20.5ZM12.4,157.7h49.9c-1.2,12.8-11.9,22.8-24.9,22.8s-23.8-10-24.9-22.8ZM127,55.9h16.3v13.7h-16.3v-13.7ZM127,74.2h16.3v62.8h-16.3v-62.8Z"/>
</svg>