<?xml version="1.0" encoding="UTF-8"?>
<svg id="Layer_1" data-name="Layer 1" xmlns="http://www.w3.org/2000/svg" version="1.1" viewBox="0 0 200 200">
  <defs>
    <style>
      .cls-1 {
        fill: #64bebe;
      }

      .cls-1, .cls-2 {
        stroke-width: 0px;
      }

      .cls-2 {
        fill: #464646;
      }
    </style>
  </defs>
  <path class="cls-1" d="M102.3,117.8c-5.6,0-9.9,4.3-9.9,9.8s4.4,9.8,9.9,9.8,9.9-4.3,9.9-9.8c-.3-5.2-4.7-9.8-9.9-9.8Z"/>
  <path class="cls-2" d="M158.5,15.3c-2.2,0-4,1.8-4,4s1.9,4,4,4,4-1.8,4-4-1.9-4-4-4h0Z"/>
  <path class="cls-1" d="M104.2,69.3c4.3,0,7.8-3.4,7.8-7.7s-3.4-7.7-7.8-7.7-7.8,3.4-7.8,7.7,3.4,7.7,7.8,7.7Z"/>
  <path class="cls-1" d="M14.7,150c-2.2,0-4,1.8-4,4s1.9,4,4,4,4-1.8,4-4-1.9-4-4-4Z"/>
  <path class="cls-1" d="M183.7,21.4c2.2,0,4,1.8,4,4s-1.8,4-4,4-4-1.8-4-4,1.8-4,4-4Z"/>
  <path class="cls-1" d="M144.8,36.8c2.2,0,4,1.8,4,4s-1.8,4-4,4-4-1.8-4-4,1.8-4,4-4Z"/>
  <path class="cls-1" d="M86.8,17.4c2.2,0,4,1.8,4,4s-1.8,4-4,4-4-1.8-4-4,1.8-4,4-4Z"/>
  <path class="cls-2" d="M20.6,109.5c-2.2,0-4,1.8-4,4s1.8,4,4,4,4-1.8,4-4-1.8-4-4-4h0Z"/>
  <path class="cls-2" d="M158.5,98.2c0-.9.9-1.8,1.9-1.8s1.9.9,1.9,1.8v46.1c0,.9-.9,1.8-1.9,1.8s-1.9-.9-1.9-1.8v-46.1Z"/>
  <path class="cls-2" d="M146.7,90.5c0-.9.9-1.8,1.9-1.8s1.9.9,1.9,1.8v15.4c0,.9-.9,1.8-1.9,1.8s-1.9-.9-1.9-1.8v-15.4Z"/>
  <path class="cls-2" d="M42,98.2c0-.9.9-1.8,1.9-1.8s1.9.9,1.9,1.8v46.1c0,.9-.9,1.8-1.9,1.8s-1.9-.9-1.9-1.8v-46.1Z"/>
  <path class="cls-2" d="M54,174.4h-19.7v-5.3h19.7c.9,0,1.7,1.2,1.7,2.5s-.9,2.9-1.7,2.9Z"/>
  <path class="cls-2" d="M57.6,105.8c0,.9-.9,1.8-1.9,1.8s-1.9-.9-1.9-1.8v-15.4c0-.9.9-1.8,1.9-1.8s1.9.9,1.9,1.8v15.4Z"/>
  <path class="cls-1" d="M67.2,174.9c-2.2,0-4-1.8-4-4s1.9-4,4-4,4,1.8,4,4-1.9,4-4,4Z"/>
  <path class="cls-1" d="M137.1,174.9c-2.2,0-4-1.8-4-4s1.9-4,4-4,4,1.8,4,4-1.9,4-4,4Z"/>
  <path class="cls-1" d="M104.7,88.3l2.1,8.9.6,2.4,2.5.5c2.2.5,4.6,1.5,6.8,2.9l2.1,1.3,2.1-1.3,8-5,3.3,3.3-5,7.8-1.4,2.1,1.4,2.2c1.3,2,2.1,4.5,3,7.1l.7,2.1,2.2.5,8.9,2.1-.4,4.6-9.1,2.1-2.4.6-.6,2.5c-.5,2.2-1.5,4.5-2.9,6.7l-1.4,2.2,1.4,2.1,5,7.8-3.3,3.3-8-5-2.1-1.3-2.1,1.3c-2.1,1.3-4.6,2.1-7.2,3l-2.1.7-.5,2.2-2.1,8.9h-4.1l-2.1-8.9-.6-2.4-2.5-.5c-2.2-.5-4.6-1.5-6.8-2.9l-2.1-1.3-2.1,1.3-8,5-3.3-3.3,5-7.8,1.4-2.1-1.4-2.2c-1.3-2.1-2.1-4.5-3-7.1l-.7-2.1-2.2-.5-9-2.1v-4.6l9-2.1,2.4-.6.6-2.4c.5-2.2,1.5-4.5,2.9-6.7l1.4-2.2-1.4-2.1-5-7.8,3.3-3.3,8,5,2.1,1.3,2.1-1.3c2.1-1.3,4.6-2.1,7.2-3l2.1-.7.5-2.2,2.1-8.9h4.8M106.3,84.3h-8.1c-.9,0-1.6.6-1.9,1.5l-2.5,10.4c-2.8.9-5.6,1.8-8.1,3.4l-9.3-5.8c-.4-.1-.8-.2-1.1-.2s-1,.1-1.3.5l-5.6,5.5c-.6.6-.9,1.8-.3,2.5l5.9,9.2c-1.6,2.5-2.8,5.2-3.4,8l-10.6,2.5c-.9.3-1.6.9-1.6,1.8v8c0,.9.6,1.5,1.6,1.8l10.6,2.5c.9,2.8,1.9,5.5,3.4,8l-5.9,9.2c-.3.9-.3,1.8.3,2.5l5.6,5.5c.4.4,1,.6,1.6.6s.7-.1.9-.3l9.3-5.8c2.5,1.5,5.3,2.8,8.1,3.4l2.5,10.4c.3.9.9,1.5,1.9,1.5h7.5c.9,0,1.6-.6,1.9-1.5l2.5-10.4c2.8-.9,5.6-1.8,8.1-3.4l9.3,5.8c.4.1.8.2,1.1.2s1-.1,1.3-.5l5.6-5.5c.6-.6.9-1.8.3-2.5l-5.9-9.2c1.6-2.5,2.8-5.2,3.4-8l10.6-2.5c.9-.3,1.6-.9,1.6-1.8l.6-8c0-.9-.6-1.5-1.6-1.8l-10.6-2.5c-.9-2.8-1.9-5.5-3.4-8l5.9-9.2c.3-.9.3-1.8-.3-2.5l-5.6-5.5c-.4-.4-1-.6-1.6-.6-.3,0-.7.1-.9.3l-9.3,5.8c-2.5-1.5-5.3-2.8-8.1-3.4l-2.5-10.4c-.3-.9-.9-1.5-1.9-1.5h0Z"/>
  <path class="cls-2" d="M170.3,173.1h-21.4c-.9,0-1.9-.9-1.9-1.8s.9-1.8,1.9-1.8h21.4v3.7Z"/>
  <path class="cls-2" d="M105.5,31.7l64.5,48v101H34.2v-99.5L105.5,31.7M59.7,21.4h-15.8c-.9,0-1.9.9-1.9,1.8v15.7h-25.2c-.9,0-1.9.9-1.9,1.8v50c0,.6.3,1.2.9,1.8.3.2.7.2,1,.2s.7,0,.8-.2l12.4-8.6v97h-9.6c-.9,0-1.9.9-1.9,1.8s.9,1.8,1.9,1.8h163.1c.9,0,1.9-.9,1.9-1.8s-.9-1.8-1.9-1.8h-9.6v-97.9l12.1,9.2c.3.3.6.3,1.2.3s.6,0,.9-.3c.6-.3.9-.9.9-1.8v-49.7c.3-1.2-.6-2.1-1.6-2.1h-30.4c-.9,0-1.9.9-1.9,1.8s.9,1.8,1.9,1.8h28.6v44.2L106.6,27.5c-.3-.3-.7-.5-1.1-.5s-.8.2-1.1.5L18.8,87.1v-44.5h25.2c.9,0,1.9-.9,1.9-1.8v-15.7h12.1v15.7c0,.9.9,1.8,1.9,1.8h7.5c.9,0,1.9-.9,1.9-1.8s-.9-1.8-1.9-1.8h-5.6v-15.7c0-.9-.9-1.8-1.9-1.8h0Z"/>
</svg>