<?xml version="1.0" encoding="UTF-8"?>
<svg id="Layer_1" data-name="Layer 1" xmlns="http://www.w3.org/2000/svg" version="1.1" viewBox="0 0 200 200">
  <defs>
    <style>
      .cls-1 {
        fill: #64bebe;
      }

      .cls-1, .cls-2 {
        stroke-width: 0px;
      }

      .cls-2 {
        fill: #464646;
      }
    </style>
  </defs>
  <path class="cls-1" d="M104,158.4c-1.7-1.5-3.6-2.6-5.8-3.2l-28.1-8.1v-12h6v7.5l23.7,6.8c3.1.9,5.8,2.4,8.2,4.5l-4,4.5Z"/>
  <path class="cls-1" d="M106,192.7H7.3v-23.1c0-9.3,6.2-17.5,15.1-20.1l23.7-6.8v-7.5h6v12l-28.1,8.1c-6.4,1.8-10.8,7.7-10.8,14.4v17.1h92.7v6Z"/>
  <path class="cls-1" d="M61.1,141.8c-13.2,0-23.9-10.7-23.9-23.9v-26.9h47.8v26.9c0,13.2-10.7,23.9-23.9,23.9ZM43.2,97v20.9c0,9.9,8,17.9,17.9,17.9s17.9-8,17.9-17.9v-20.9h-35.9Z"/>
  <rect class="cls-1" x="31.3" y="168.7" width="6" height="20.9"/>
  <rect class="cls-1" x="85.1" y="168.7" width="6" height="20.9"/>
  <path class="cls-1" d="M85.1,126.9h-3.9v-6h3.9c3.3,0,6-2.7,6-6s-2.7-6-6-6h-3v-6h3c6.6,0,12,5.4,12,12s-5.4,12-12,12Z"/>
  <path class="cls-1" d="M41.1,126.9h-3.9c-6.6,0-12-5.4-12-12s5.4-12,12-12h3v6h-3c-3.3,0-6,2.7-6,6s2.7,6,6,6h3.9v6Z"/>
  <path class="cls-1" d="M61.1,159.8c-8.2,0-14.9-6.7-14.9-14.9h6c0,4.9,4,9,9,9s9-4,9-9h6c0,8.2-6.7,14.9-14.9,14.9Z"/>
  <path class="cls-2" d="M102.3,103h-8.3v-6h3.6l1.7-6.9,1.6-.5c2.6-.8,5-1.8,7.3-3l1.5-.8,6.1,3.7,9.4-9.4-3.7-6.1.8-1.5c1.2-2.2,2.2-4.7,3-7.3l.5-1.6,6.9-1.7v-13.3l-6.9-1.7-.5-1.6c-.8-2.6-1.8-5-3-7.3l-.8-1.5,3.7-6.1-9.4-9.4-6.1,3.7-1.5-.8c-2.2-1.2-4.7-2.2-7.3-3l-1.6-.5-1.7-6.9h-13.3l-1.7,6.9-1.6.5c-2.6.8-5,1.8-7.3,3l-1.5.8-6.1-3.7-9.4,9.4,3.7,6.1-.8,1.5c-1.2,2.2-2.2,4.7-3,7.3l-.5,1.6-6.9,1.7v13.2h-6v-17.9l8.2-2c.6-1.8,1.3-3.6,2.2-5.3l-4.3-7.2,16-16,7.2,4.3c1.7-.8,3.4-1.6,5.3-2.2l2-8.2h22.6l2,8.2c1.8.6,3.6,1.3,5.3,2.2l7.2-4.3,16,16-4.3,7.2c.8,1.7,1.6,3.4,2.2,5.3l8.2,2v22.6l-8.2,2c-.6,1.8-1.3,3.6-2.2,5.3l4.3,7.2-16,16-7.2-4.3c-1.7.8-3.4,1.6-5.3,2.2l-2,8.2Z"/>
  <path class="cls-2" d="M93,85l-.4-6c12.5-.8,22.4-11.3,22.4-23.9s-10.7-23.9-23.9-23.9-23.9,10.7-23.9,23.9,0,1.9.2,2.8l-5.9.7c-.1-1.1-.2-2.3-.2-3.5,0-16.5,13.4-29.9,29.9-29.9s29.9,13.4,29.9,29.9-12.3,28.8-28,29.8Z"/>
  <path class="cls-2" d="M91,73.1c-2.2,0-4.4-.4-6.5-1.2l2.2-5.6c1.4.5,2.8.8,4.3.8,6.6,0,12-5.4,12-12s-5.4-12-12-12-12,5.4-12,12,.6,4.4,1.8,6.3l-5.1,3.1c-1.7-2.8-2.7-6.1-2.7-9.4,0-9.9,8-17.9,17.9-17.9s17.9,8,17.9,17.9-8,17.9-17.9,17.9Z"/>
  <polygon class="cls-2" points="150 61.8 135.1 58.1 136.6 52.3 145.6 54.5 154.5 19.3 192.7 19.3 192.7 25.3 159.1 25.3 150 61.8"/>
  <rect class="cls-2" x="162.8" y="31.3" width="29.9" height="6"/>
  <rect class="cls-2" x="162.8" y="43.2" width="29.9" height="6"/>
  <rect class="cls-2" x="156.8" y="55.2" width="6" height="6"/>
  <rect class="cls-2" x="168.7" y="55.2" width="6" height="6"/>
  <rect class="cls-2" x="180.7" y="55.2" width="6" height="6"/>
  <path class="cls-2" d="M192.7,147.8h-6v-12.5c-3.5-1.2-6-4.6-6-8.5s2.5-7.2,6-8.5v-9.5h-35.9v14.9h-3c-1.6,0-3,1.3-3,3s1.3,3,3,3h3v17.9h-6v-12.5c-3.5-1.2-6-4.6-6-8.5s2.5-7.2,6-8.5v-15.5h47.8v20.9h-3c-1.6,0-3,1.3-3,3s1.3,3,3,3h3v17.9Z"/>
  <path class="cls-2" d="M147.8,192.7h-44.8v-20.9h3c1.6,0,3-1.3,3-3s-1.3-3-3-3h-3v-20.9h20.9v3c0,1.6,1.3,3,3,3s3-1.3,3-3v-3h17.9v6h-12.5c-1.2,3.5-4.6,6-8.5,6s-7.2-2.5-8.5-6h-9.5v9.5c3.5,1.2,6,4.6,6,8.5s-2.5,7.2-6,8.5v9.5h38.9v6Z"/>
  <path class="cls-1" d="M192.7,192.7h-47.8v-15.5c-3.5-1.2-6-4.6-6-8.5s2.5-7.2,6-8.5v-15.5h12.5c1.2-3.5,4.6-6,8.5-6s7.2,2.5,8.5,6h18.4v47.8ZM150.8,186.7h35.9v-35.9h-17.9v-3c0-1.6-1.3-3-3-3s-3,1.3-3,3v3h-12v14.9h-3c-1.6,0-3,1.3-3,3s1.3,3,3,3h3v14.9Z"/>
  <path class="cls-1" d="M97,114.9h-6v-23.9c0-16.5-13.4-29.9-29.9-29.9s-29.9,13.4-29.9,29.9v23.9h-6v-23.9c0-19.8,16.1-35.9,35.9-35.9s35.9,16.1,35.9,35.9v23.9Z"/>
</svg>