<?xml version="1.0" encoding="UTF-8"?>
<svg id="Layer_1" data-name="Layer 1" xmlns="http://www.w3.org/2000/svg" version="1.1" viewBox="0 0 200 200">
  <defs>
    <style>
      .cls-1 {
        fill: #64bebe;
        stroke-width: 0px;
      }
    </style>
  </defs>
  <polygon class="cls-1" points="90.1 17.3 114.7 17.3 114.8 17.4 120.5 18.7 140.1 28.6 140.8 30.5 141.6 32 142.8 34.7 143.3 43 145 47.3 146.9 51.6 149.8 55.5 152.3 55.4 154 60.4 156 65 160.1 70.9 160.6 73 159.9 75.3 158.4 75.9 157.5 76 155.9 75.7 153.9 74.6 153.4 74.1 152.8 72.8 151.5 71 150.7 70.7 148.3 70.7 147 70.4 146.1 69.3 147.7 69.2 146.7 67.9 146.4 67.7 143.1 67 142.3 67.1 141.3 67.5 137.5 73.8 136.3 74.9 134.9 76.1 129.2 79.7 127.7 81.4 126 83.4 123.6 86.9 121.5 89.1 115.9 93 117.8 94 118.6 94.3 122.2 93.4 125.9 93.3 128.6 92.1 128.7 93.4 127.5 95.7 127.2 97.5 127.7 98.8 129 99.3 131.8 99.3 134 98.6 134.4 98.5 140.3 94.4 142.3 92.4 143.3 92.4 145.9 95.8 147.3 97 147.8 97.1 148.9 97.2 151.9 97.1 152.6 97.3 152 103.3 152.2 106.7 155.2 114.3 155.2 115.8 154.9 117.4 156.2 121.3 159.6 132.9 161.4 136.6 166.1 143.5 167.4 144.7 171.1 145.9 171.2 147.5 170.8 149.7 170.7 151.8 171.5 153.9 174.1 157.4 175.1 159.4 175.6 160.1 177.8 161.1 181.7 161.9 180.7 163.5 180.4 165.6 180.5 167.6 181.1 169.1 179.3 167.8 178.9 168.7 179.7 169.5 180.4 170 179.2 171.1 178.8 170.8 177.9 170.7 177.8 172.8 178.6 173.3 179.7 172.8 181 171.4 181.4 172.7 181.7 177.6 182 179.3 185.3 183.4 119.5 184.1 119 184.2 113.9 184.2 113.1 181.3 111.5 179.5 109.5 178.2 107.2 176.1 105.8 173.7 104.5 170.2 103.6 167.4 103.1 160.2 97.9 145.3 92.1 135.2 48.5 129.5 7.8 124.5 24.5 105.8 30.4 96 36.4 89.5 37.8 87.5 40.5 80.1 47.5 68.5 49.5 64.2 49.9 60.2 51 57.7 53.8 52.4 61.8 32.1 64.8 27.9 65.4 27.3 70.4 24.1 85.2 18 89.8 17.4 90.1 17.3 90.1 17.3"/>
  <polygon class="cls-1" points="159.9 38.5 162.4 37.2 163.2 35.9 161.9 35 160.3 34.9 159.5 35.3 158.6 35 158.2 34.2 158 33.1 157.9 31.9 158 31.2 156.3 31.2 155.8 30.7 156.2 29.9 157.4 29 158.5 28.6 160.5 28.5 162.9 30.3 177.3 51 178.2 53.6 178.3 54.8 177.8 58.7 177.6 59.4 175.7 62.7 173.1 66 169.8 69.1 166.3 70.8 162.3 70.4 160 67.6 156.8 59.9 152.8 52.9 151.7 51.6 150.5 50.9 150 50.5 149.1 49.3 154.5 45.9 155.4 45 155.9 41.5 154.4 40.9 152.8 40.7 153.7 39.3 155.6 39.7 156.8 40.5 158.6 40.9 159.7 40.8 160.3 40.1 159.9 38.5 159.9 38.5"/>
  <polygon class="cls-1" points="181.7 91.2 180.7 92 175.7 88.4 170.5 87.6 170.2 86.1 171.2 84.5 172.6 84.3 173 84.4 177.7 85.9 178.5 86.4 181.1 89.2 181.4 89.8 181.7 91.2 181.7 91.2"/>
  <polygon class="cls-1" points="145.9 29.3 147.6 27.9 148.8 26.2 150.4 25.2 153.2 24.9 155.1 25 154.9 26.1 152.8 27.2 151.5 28.5 151.2 28.8 149.6 30.1 148.2 30.9 146.2 30.4 145.9 29.3 145.9 29.3"/>
</svg>