<?xml version="1.0" encoding="UTF-8"?>
<svg id="glipy_copy_2" data-name="glipy copy 2" xmlns="http://www.w3.org/2000/svg" version="1.1" viewBox="0 0 64 64">
  <defs>
    <style>
      .cls-1 {
        fill: #64bebe;
      }

      .cls-1, .cls-2 {
        stroke-width: 0px;
      }

      .cls-2 {
        fill: #464646;
      }
    </style>
  </defs>
  <path class="cls-2" d="M32,2C15.4,2,2,15.4,2,32s13.4,30,30,30,30-13.4,30-30c0-16.6-13.4-30-30-30ZM49.9,43.2c1.3,2.5,2,5.3,2,8.1,0,.4-.3.7-.7.7-.2,0-.4,0-.5-.2-1.3-1.4-2.8-2.6-4.4-3.6-.9-.5-1.9-.5-2.8.1-8.9,6.4-21.3,4.3-27.7-4.6-1.9-2.7-3.2-5.9-3.6-9.2-1.8-12.8,9.8-24.3,22.5-22.2,13.2,1.6,21.1,16.8,15,28.6-.4.7-.3,1.6,0,2.3Z"/>
  <path class="cls-1" d="M17.1,32.3c0,8.2,6.7,14.9,14.9,14.9,8.2,0,14.9-6.7,14.9-14.9h0c-.8-19.8-29-19.8-29.8,0ZM27,19.8c-1.4,1.4-2.4,3-3.1,4.8h-2.9c1.5-2.2,3.6-3.8,6-4.8ZM20.2,26h3.2c-.6,1.8-.9,3.7-.9,5.6h-3.9c0-2,.6-3.9,1.6-5.6ZM18.5,33h3.9c0,1.9.3,3.8.9,5.6h-3.2c-1-1.7-1.6-3.6-1.6-5.6ZM20.9,40h2.9c.7,1.8,1.8,3.4,3.1,4.8-2.4-1-4.5-2.6-6-4.8ZM31.3,45.5c-2.4-.3-4.6-2.4-5.9-5.5h5.9v5.5ZM31.3,38.6h-6.5c-.6-1.8-.9-3.7-1-5.6h7.4v5.6ZM31.3,31.6h-7.4c0-1.9.4-3.8,1-5.6h6.5v5.6ZM31.3,24.6h-5.9c1.3-3.1,3.5-5.2,5.9-5.5v5.5ZM32.7,19c2.5.3,4.6,2.4,5.9,5.5h-5.9v-5.5ZM32.7,26h6.5c.6,1.8.9,3.7,1,5.6h-7.4v-5.6ZM32.7,33h7.4c0,1.9-.4,3.8-1,5.6h-6.5v-5.6ZM32.7,45.5v-5.5h5.9c-1.3,3.1-3.5,5.2-5.9,5.5ZM37,44.8c1.4-1.4,2.4-3,3.1-4.8h2.9c-1.5,2.2-3.6,3.8-6,4.8ZM43.8,38.6h-3.2c.6-1.8.9-3.7.9-5.6h3.9c0,2-.6,3.9-1.6,5.6ZM45.5,31.6h-3.9c0-1.9-.3-3.8-.9-5.6h3.2c1,1.7,1.6,3.6,1.6,5.6ZM40.2,24.6c-.7-1.8-1.8-3.5-3.1-4.8,2.4,1,4.5,2.7,6,4.8h-2.9Z"/>
</svg>