<?xml version="1.0" encoding="UTF-8"?>
<svg id="Layer_1" data-name="Layer 1" xmlns="http://www.w3.org/2000/svg" version="1.1" viewBox="0 0 200 200">
  <defs>
    <style>
      .cls-1 {
        fill: #64bebe;
      }

      .cls-1, .cls-2 {
        stroke-width: 0px;
      }

      .cls-2 {
        fill: #464646;
      }
    </style>
  </defs>
  <path class="cls-2" d="M100,100c-.5,0-.9,0-1.4-.3L12.7,66.1c-1.4-.6-2.4-1.9-2.4-3.5,0-1.5.9-2.9,2.4-3.5L98.6,25.6c.9-.3,1.8-.3,2.7,0l85.9,33.6c1.4.6,2.4,1.9,2.4,3.5,0,1.5-.9,2.9-2.4,3.5l-85.9,33.6c-.4.2-.9.3-1.4.3ZM24.3,62.6l75.7,29.6,75.7-29.6-75.7-29.6L24.3,62.6Z"/>
  <path class="cls-2" d="M36.5,129.9c-2.1,0-3.7-1.7-3.7-3.7v-48.6c0-1.6,1.1-3.1,2.6-3.6l59.8-18.7c2-.6,4.1.5,4.7,2.5.6,2-.5,4.1-2.5,4.7l-57.1,17.9v45.8c0,2.1-1.7,3.7-3.7,3.7Z"/>
  <path class="cls-2" d="M100,139.2c-10.4,0-30.8-2-50.7-15.6-1-.7-1.6-1.9-1.6-3.1v-41.1c0-2.1,1.7-3.7,3.7-3.7s3.7,1.7,3.7,3.7v39.1c17.7,11.5,35.6,13.2,44.8,13.2s7.2-.2,10.7-.7c2-.3,3.9,1.2,4.2,3.2.3,2-1.2,3.9-3.2,4.2-3.8.5-7.7.8-11.7.8Z"/>
  <path class="cls-2" d="M148.6,100c-2.1,0-3.7-1.7-3.7-3.7v-18.8c0-2.1,1.7-3.7,3.7-3.7s3.7,1.7,3.7,3.7v18.8c0,2.1-1.7,3.7-3.7,3.7Z"/>
  <path class="cls-1" d="M133.6,174.7c-.2,0-.5,0-.7,0-1.5-.3-2.6-1.4-3-2.9l-14.9-67.2c-.3-1.2.1-2.5,1-3.5.9-.9,2.2-1.3,3.5-1l67.2,14.9c1.5.3,2.6,1.5,2.9,3,.3,1.5-.4,3-1.6,3.8l-18.6,12.4,19.2,19.2c.7.7,1.1,1.7,1.1,2.6,0,1-.4,1.9-1.1,2.6l-14.9,14.9c-1.5,1.5-3.8,1.5-5.3,0l-19.2-19.2-12.4,18.6c-.7,1.1-1.9,1.7-3.1,1.7ZM148.6,144.8c1,0,1.9.4,2.6,1.1l19.8,19.8,9.7-9.7-19.8-19.8c-.8-.8-1.2-1.9-1.1-3s.7-2.1,1.6-2.7l15.1-10.1-53-11.8,11.8,53,10.1-15.1c.6-.9,1.6-1.5,2.7-1.6.1,0,.2,0,.4,0Z"/>
</svg>