<?xml version="1.0" encoding="UTF-8"?>
<svg id="Layer_1" data-name="Layer 1" xmlns="http://www.w3.org/2000/svg" version="1.1" viewBox="0 0 200 200">
  <defs>
    <style>
      .cls-1 {
        fill: #64bebe;
      }

      .cls-1, .cls-2 {
        stroke-width: 0px;
      }

      .cls-2 {
        fill: #464646;
      }
    </style>
  </defs>
  <g>
    <path class="cls-2" d="M93.7,184.3c-.4,0-.7,0-1-.2L15.8,147c-.8-.4-1.4-1.2-1.4-2.2V62c0-.8.4-1.6,1.1-2,.7-.4,1.6-.5,2.3-.1l76.9,37.1c.8.4,1.4,1.2,1.4,2.2v82.8c0,.8-.4,1.6-1.1,2-.4.2-.8.4-1.3.4ZM19.2,143.3l72.1,34.7v-77.5L19.2,65.8v77.5Z"/>
    <path class="cls-2" d="M93.7,101.4c-.4,0-.7,0-1-.2L15.8,64.1c-.8-.4-1.4-1.2-1.4-2.2,0-.9.5-1.8,1.4-2.2L92.7,22.8c.7-.3,1.4-.3,2.1,0l76.9,37c.8.4,1.4,1.2,1.4,2.2,0,.9-.5,1.8-1.4,2.2l-77,37c-.3.2-.7.2-1,.2ZM22.4,62l71.4,34.4,71.4-34.3L93.8,27.7,22.4,62Z"/>
    <path class="cls-2" d="M93.7,184.3c-.4,0-.9-.1-1.3-.4-.7-.4-1.1-1.2-1.1-2v-82.8c0-.9.5-1.8,1.4-2.2l76.9-37.1c.7-.4,1.6-.3,2.3.1.7.4,1.1,1.2,1.1,2v33.5c0,1.3-1.1,2.4-2.4,2.4s-2.4-1.1-2.4-2.4v-29.7l-72.1,34.7v77.5l39.9-19.2c1.2-.6,2.6,0,3.2,1.1.6,1.2,0,2.6-1.1,3.2l-43.4,20.9c-.3.2-.7.2-1,.2Z"/>
    <path class="cls-2" d="M70.1,133.8c-.7,0-1.5-.3-1.9-1l-15.9-21.5-12.4,6.9c-.7.4-1.7.4-2.4,0s-1.2-1.2-1.2-2.1v-43.7c0-.9.5-1.8,1.4-2.2l42.3-20.5c.7-.3,1.4-.3,2.1,0l31.4,15.1c.8.4,1.4,1.2,1.4,2.2,0,.9-.5,1.8-1.4,2.2l-41.1,19.8v42.3c0,1-.7,2-1.6,2.3-.2,0-.5.1-.8.1ZM53,105.8c.7,0,1.5.3,1.9,1l12.8,17.3v-36.5c0-.9.5-1.8,1.4-2.2l38-18.3-25.9-12.4-39.9,19.3v38.1l10.6-6c.4-.2.8-.3,1.2-.3Z"/>
    <path class="cls-2" d="M110,158.2c-.9,0-1.8-.5-2.2-1.4-.6-1.2,0-2.6,1.1-3.2l14.7-7.1c1.2-.6,2.6,0,3.2,1.1.6,1.2,0,2.6-1.1,3.2l-14.7,7.1c-.3.2-.7.2-1,.2Z"/>
    <path class="cls-2" d="M110,142.4c-.9,0-1.7-.5-2.2-1.4-.6-1.2,0-2.6,1.1-3.2l9.9-4.8c1.2-.6,2.6,0,3.2,1.1s0,2.6-1.1,3.2l-9.9,4.8c-.3.2-.7.2-1,.2Z"/>
  </g>
  <path class="cls-1" d="M156.1,170h-.2c-.2,0-.5,0-.7-.1-42.4-13.4-34.4-62.4-34.3-62.9.1-.8.7-1.5,1.5-1.8l32.7-12.9c.3-.1.6-.2.9-.2h.2c.3,0,.6,0,.9.2l32.7,12.9c.8.3,1.3,1,1.5,1.8,0,.5,8.1,49.5-34.3,62.9-.2,0-.5.1-.7.1ZM125.4,109.2c-.4,3.4-1.2,12.8,1.2,23.1,3.8,16.6,13.7,27.7,29.4,32.8,15.7-5.1,25.6-16.2,29.4-32.8,2.4-10.3,1.6-19.8,1.2-23.1l-30.6-12-30.6,12Z"/>
  <path class="cls-1" d="M156,143.7h0c-.8,0-1.5-.4-1.9-1l-9.1-12.1c-.8-1.1-.6-2.6.5-3.4,1.1-.8,2.6-.6,3.4.5l7.2,9.6,16-21c.8-1.1,2.3-1.3,3.4-.5,1.1.8,1.3,2.3.5,3.4l-17.9,23.6c-.5.6-1.2.9-1.9.9Z"/>
</svg>