<?xml version="1.0" encoding="UTF-8"?>
<svg id="Layer_1" data-name="Layer 1" xmlns="http://www.w3.org/2000/svg" version="1.1" viewBox="0 0 200 200">
  <defs>
    <style>
      .cls-1 {
        fill: #64bebe;
      }

      .cls-1, .cls-2 {
        stroke-width: 0px;
      }

      .cls-2 {
        fill: #464646;
      }
    </style>
  </defs>
  <path class="cls-1" d="M87.5,159.4h-16.5c-1.8,0-3.3-1.5-3.3-3.3v-14.2h-14.2c-1.8,0-3.3-1.5-3.3-3.3v-16.5c0-1.8,1.5-3.3,3.3-3.3h14.2v-14.2c0-1.8,1.5-3.3,3.3-3.3h16.5c1.8,0,3.3,1.5,3.3,3.3v14.2h14.2c1.8,0,3.3,1.5,3.3,3.3v16.5c0,1.8-1.5,3.3-3.3,3.3h-14.2v14.2c0,1.8-1.5,3.3-3.3,3.3ZM74.4,152.8h9.8v-14.2c0-1.8,1.5-3.3,3.3-3.3h14.2v-9.8h-14.2c-1.8,0-3.3-1.5-3.3-3.3v-14.2h-9.8v14.2c0,1.8-1.5,3.3-3.3,3.3h-14.2v9.8h14.2c1.8,0,3.3,1.5,3.3,3.3v14.2Z"/>
  <g>
    <g>
      <path class="cls-2" d="M136.2,186.3H22.4c-1.8,0-3.3-1.5-3.3-3.3V58.8c0-1.8,1.5-3.3,3.3-3.3h113.8c1.8,0,3.3,1.5,3.3,3.3v124.2c0,1.8-1.5,3.3-3.3,3.3ZM25.7,179.7h107.2V62.1H25.7v117.5Z"/>
      <path class="cls-2" d="M177.6,186.3c-.9,0-1.7-.3-2.4-1l-18.3-18.5-18.3,18.5c-1.3,1.3-3.4,1.3-4.7,0-1.3-1.3-1.3-3.4,0-4.7l20.5-20.7c1.2-1.4,3.7-1.5,5,0l14.9,15.1v-108.2l-14.9,14.7c-1.2,1.4-3.7,1.4-4.9,0l-20.6-20.4c-1.3-1.3-1.3-3.4,0-4.7,1.3-1.3,3.4-1.3,4.7,0l18.4,18.2,18.4-18.2c1-.9,2.4-1.2,3.6-.7,1.2.5,2,1.7,2,3.1v124.2c0,1.3-.8,2.6-2.1,3.1-.4.2-.8.2-1.3.2Z"/>
      <path class="cls-2" d="M115.5,81c-1.8,0-3.3-1.5-3.3-3.3V28.4c0-3.8-7.5-8.1-17.5-8.1h-30.7c-10,0-17.5,4.3-17.5,8.1v49.2c0,1.8-1.5,3.3-3.3,3.3s-3.3-1.5-3.3-3.3V28.4c0-8.3,10.6-14.7,24.2-14.7h30.7c13.5,0,24.2,6.5,24.2,14.7v49.2c0,1.8-1.5,3.3-3.3,3.3Z"/>
      <path class="cls-2" d="M166.5,58.2c-1.8,0-3.3-1.5-3.3-3.3v-26.5c0-3.8-7.5-8.1-17.5-8.1h-24.9c-1.8,0-3.3-1.5-3.3-3.3s1.5-3.3,3.3-3.3h24.9c13.5,0,24.2,6.5,24.2,14.7v26.5c0,1.8-1.5,3.3-3.3,3.3Z"/>
      <path class="cls-2" d="M94.1,62.1c-1.8,0-3.3-1.5-3.3-3.3v-30.4c0-2.3.9-4.6,2.5-6.6,1.1-1.4,3.2-1.7,4.7-.5,1.4,1.1,1.7,3.2.5,4.7-.7.8-1,1.7-1,2.5v30.4c0,1.8-1.5,3.3-3.3,3.3Z"/>
      <path class="cls-2" d="M156.9,165.4c-1.8,0-3.3-1.5-3.3-3.3v-82.8c0-1.8,1.5-3.3,3.3-3.3s3.3,1.5,3.3,3.3v82.8c0,1.8-1.5,3.3-3.3,3.3Z"/>
    </g>
    <path class="cls-2" d="M177.6,186.3h-41.4c-1.8,0-3.3-1.5-3.3-3.3s1.5-3.3,3.3-3.3h41.4c1.8,0,3.3,1.5,3.3,3.3s-1.5,3.3-3.3,3.3Z"/>
  </g>
</svg>