<?xml version="1.0" encoding="UTF-8"?>
<svg id="Layer_1" data-name="Layer 1" xmlns="http://www.w3.org/2000/svg" version="1.1" viewBox="0 0 200 200">
  <defs>
    <style>
      .cls-1 {
        fill: #64bebe;
      }

      .cls-1, .cls-2 {
        stroke-width: 0px;
      }

      .cls-2 {
        fill: #464646;
      }
    </style>
  </defs>
  <path class="cls-2" d="M64.6,170.8c-19.5,0-35.4-15.9-35.4-35.4s15.9-35.4,35.4-35.4,35.4,15.9,35.4,35.4-15.9,35.4-35.4,35.4ZM64.6,105.9c-16.3,0-29.5,13.2-29.5,29.5s13.2,29.5,29.5,29.5,29.5-13.2,29.5-29.5-13.2-29.5-29.5-29.5Z"/>
  <g>
    <path class="cls-1" d="M75.7,191.5h-22.3l-2.8-11c-2.8-.9-5.5-2-8-3.3l-9.8,5.8-15.8-15.8,5.8-9.8c-1.3-2.6-2.5-5.2-3.3-8l-11-2.8v-22.3l11-2.8c.9-2.8,2-5.5,3.3-8l-5.8-9.8,15.8-15.8,9.8,5.8c2.6-1.3,5.2-2.5,8-3.3l2.8-11h22.3l2.8,11c2.8.9,5.5,2,8,3.3l9.8-5.8,15.8,15.8-5.8,9.8c1.3,2.6,2.5,5.2,3.3,8l11,2.8v22.3l-11,2.8c-.9,2.8-2,5.5-3.3,8l5.8,9.8-15.8,15.8-9.8-5.8c-2.6,1.3-5.2,2.5-8,3.3l-2.8,11ZM58,185.6h13.1l2.5-9.9,1.7-.4c3.5-.9,6.8-2.3,9.8-4.1l1.5-.9,8.8,5.2,9.3-9.3-5.2-8.8.9-1.5c1.8-3.1,3.1-6.4,4.1-9.8l.4-1.7,9.9-2.5v-13.1l-9.9-2.5-.4-1.7c-.9-3.5-2.3-6.8-4.1-9.8l-.9-1.5,5.2-8.8-9.3-9.3-8.8,5.2-1.5-.9c-3.1-1.8-6.4-3.1-9.8-4.1l-1.7-.4-2.5-9.9h-13.1l-2.5,9.9-1.7.4c-3.5.9-6.8,2.3-9.8,4.1l-1.5.9-8.8-5.2-9.3,9.3,5.2,8.8-.9,1.5c-1.8,3.1-3.1,6.4-4.1,9.8l-.4,1.7-9.9,2.5v13.1l9.9,2.5.4,1.7c.9,3.5,2.3,6.8,4.1,9.8l.9,1.5-5.2,8.8,9.3,9.3,8.8-5.2,1.5.9c3.1,1.8,6.4,3.1,9.8,4.1l1.7.4,2.5,9.9Z"/>
    <path class="cls-1" d="M64.6,153.1c-9.8,0-17.7-7.9-17.7-17.7s7.9-17.7,17.7-17.7,17.7,7.9,17.7,17.7-7.9,17.7-17.7,17.7ZM64.6,123.6c-6.5,0-11.8,5.3-11.8,11.8s5.3,11.8,11.8,11.8,11.8-5.3,11.8-11.8-5.3-11.8-11.8-11.8Z"/>
    <path class="cls-1" d="M191.5,73.4h-82.6V8.5h82.6v64.9ZM114.8,67.5h70.8V14.4h-70.8v53.1Z"/>
  </g>
  <rect class="cls-2" x="120.7" y="20.3" width="59" height="5.9"/>
  <rect class="cls-2" x="120.7" y="32.1" width="59" height="5.9"/>
  <rect class="cls-2" x="120.7" y="43.9" width="59" height="5.9"/>
  <rect class="cls-2" x="147.2" y="55.7" width="5.9" height="5.9"/>
  <rect class="cls-2" x="159" y="55.7" width="5.9" height="5.9"/>
  <rect class="cls-2" x="170.8" y="55.7" width="5.9" height="5.9"/>
  <rect class="cls-2" x="135.4" y="55.7" width="5.9" height="5.9"/>
  <rect class="cls-2" x="123.6" y="55.7" width="5.9" height="5.9"/>
  <rect class="cls-2" x="147.2" y="117.7" width="5.9" height="53.1"/>
  <rect class="cls-2" x="147.2" y="70.5" width="5.9" height="29.5"/>
  <path class="cls-2" d="M150.2,191.5c-6.5,0-11.8-5.3-11.8-11.8s5.3-11.8,11.8-11.8,11.8,5.3,11.8,11.8-5.3,11.8-11.8,11.8ZM150.2,173.8c-3.3,0-5.9,2.6-5.9,5.9s2.6,5.9,5.9,5.9,5.9-2.6,5.9-5.9-2.6-5.9-5.9-5.9Z"/>
  <path class="cls-2" d="M179.7,191.5c-6.5,0-11.8-5.3-11.8-11.8s5.3-11.8,11.8-11.8,11.8,5.3,11.8,11.8-5.3,11.8-11.8,11.8ZM179.7,173.8c-3.3,0-5.9,2.6-5.9,5.9s2.6,5.9,5.9,5.9,5.9-2.6,5.9-5.9-2.6-5.9-5.9-5.9Z"/>
  <path class="cls-2" d="M120.7,191.5c-6.5,0-11.8-5.3-11.8-11.8s5.3-11.8,11.8-11.8,11.8,5.3,11.8,11.8-5.3,11.8-11.8,11.8ZM120.7,173.8c-3.3,0-5.9,2.6-5.9,5.9s2.6,5.9,5.9,5.9,5.9-2.6,5.9-5.9-2.6-5.9-5.9-5.9Z"/>
  <polygon class="cls-2" points="182.6 170.8 176.7 170.8 176.7 156.1 123.6 156.1 123.6 170.8 117.7 170.8 117.7 150.2 182.6 150.2 182.6 170.8"/>
  <path class="cls-2" d="M175.9,120.7h-59.3l7.9-23.6h59.3l-7.9,23.6ZM124.8,114.8h46.9l3.9-11.8h-46.9l-3.9,11.8Z"/>
  <polygon class="cls-2" points="67.5 82.3 61.6 82.3 61.6 38 111.8 38 111.8 43.9 67.5 43.9 67.5 82.3"/>
</svg>