<?xml version="1.0" encoding="UTF-8"?>
<svg id="Layer_1" data-name="Layer 1" xmlns="http://www.w3.org/2000/svg" version="1.1" viewBox="0 0 200 200">
  <defs>
    <style>
      .cls-1 {
        fill: #64bebe;
      }

      .cls-1, .cls-2 {
        stroke-width: 0px;
      }

      .cls-2 {
        fill: #464646;
      }
    </style>
  </defs>
  <path class="cls-1" d="M148.5,62.9c-6.3,0-11.4-5.1-11.4-11.4s5.1-11.4,11.4-11.4,11.4,5.1,11.4,11.4-5.1,11.4-11.4,11.4ZM148.5,45.8c-3.1,0-5.7,2.6-5.7,5.7s2.6,5.7,5.7,5.7,5.7-2.6,5.7-5.7-2.6-5.7-5.7-5.7Z"/>
  <rect class="cls-1" x="145.6" y="60.1" width="5.7" height="22.8"/>
  <path class="cls-2" d="M166.9,86.9l-2.6-5.1c11.4-5.9,18.4-17.5,18.4-30.3,0-18.9-15.3-34.2-34.2-34.2s-34.2,15.3-34.2,34.2,7.1,24.4,18.4,30.3l-2.6,5.1c-13.3-6.9-21.5-20.5-21.5-35.4,0-22,17.9-39.9,39.9-39.9s39.9,17.9,39.9,39.9-8.2,28.5-21.5,35.4Z"/>
  <path class="cls-2" d="M148.5,188.4c-2.8,0-5.4-1.6-6.7-4.1l-13.3-26.6v-77.6h39.9v77.6l-13.3,26.6c-1.3,2.5-3.8,4.1-6.7,4.1ZM134.2,156.3l12.7,25.3c.6,1.2,2.5,1.2,3.2,0l12.7-25.3v-70.6h-28.5v70.6Z"/>
  <rect class="cls-2" x="131.4" y="154.2" width="34.2" height="5.7"/>
  <rect class="cls-2" x="122.8" y="91.4" width="51.3" height="5.7"/>
  <rect class="cls-2" x="145.6" y="94.3" width="5.7" height="62.7"/>
  <path class="cls-1" d="M76.6,188.4h-21.5l-2.7-10.6c-2.7-.8-5.3-1.9-7.8-3.2l-9.4,5.6-15.2-15.2,5.6-9.4c-1.3-2.5-2.4-5.1-3.2-7.8l-10.6-2.7v-21.5l10.6-2.7c.8-2.7,1.9-5.3,3.2-7.8l-5.6-9.4,15.2-15.2,9.4,5.6c2.5-1.3,5.1-2.4,7.8-3.2l2.7-10.6h21.5l2.7,10.6c2.7.8,5.3,1.9,7.8,3.2l9.4-5.6,15.2,15.2-5.6,9.4c1.3,2.5,2.4,5.1,3.2,7.8l10.6,2.7v21.5l-10.6,2.7c-.8,2.7-1.9,5.3-3.2,7.8l5.6,9.4-15.2,15.2-9.4-5.6c-2.5,1.3-5.1,2.4-7.8,3.2l-2.7,10.6ZM59.5,182.7h12.7l2.4-9.5,1.6-.4c3.3-.9,6.5-2.2,9.5-3.9l1.4-.8,8.5,5,9-9-5-8.5.8-1.4c1.7-3,3-6.1,3.9-9.5l.4-1.6,9.5-2.4v-12.7l-9.5-2.4-.4-1.6c-.9-3.3-2.2-6.5-3.9-9.5l-.8-1.4,5-8.5-9-9-8.5,5-1.4-.8c-3-1.7-6.1-3-9.5-3.9l-1.6-.4-2.4-9.5h-12.7l-2.4,9.5-1.6.4c-3.3.9-6.5,2.2-9.5,3.9l-1.4.8-8.5-5-9,9,5,8.5-.8,1.4c-1.7,3-3,6.1-3.9,9.5l-.4,1.6-9.5,2.4v12.7l9.5,2.4.4,1.6c.9,3.3,2.2,6.5,3.9,9.5l.8,1.4-5,8.5,9,9,8.5-5,1.4.8c3,1.7,6.1,3,9.5,3.9l1.6.4,2.4,9.5Z"/>
  <path class="cls-2" d="M65.8,168.4c-18.9,0-34.2-15.3-34.2-34.2s15.3-34.2,34.2-34.2,34.2,15.3,34.2,34.2-15.3,34.2-34.2,34.2ZM65.8,105.7c-15.7,0-28.5,12.8-28.5,28.5s12.8,28.5,28.5,28.5,28.5-12.8,28.5-28.5-12.8-28.5-28.5-28.5Z"/>
  <path class="cls-2" d="M65.8,151.3c-9.4,0-17.1-7.7-17.1-17.1s7.7-17.1,17.1-17.1,17.1,7.7,17.1,17.1-7.7,17.1-17.1,17.1ZM65.8,122.8c-6.3,0-11.4,5.1-11.4,11.4s5.1,11.4,11.4,11.4,11.4-5.1,11.4-11.4-5.1-11.4-11.4-11.4Z"/>
  <polygon class="cls-2" points="66.3 78.2 52.7 54.4 11.6 54.4 11.6 48.7 56.1 48.7 65.3 64.8 80.9 23 121.7 23 121.7 28.7 84.9 28.7 66.3 78.2"/>
  <rect class="cls-2" x="11.6" y="60.1" width="39.9" height="5.7"/>
  <rect class="cls-2" x="45.8" y="71.5" width="5.7" height="5.7"/>
  <rect class="cls-2" x="34.4" y="71.5" width="5.7" height="5.7"/>
  <rect class="cls-2" x="23" y="71.5" width="5.7" height="5.7"/>
  <rect class="cls-2" x="11.6" y="71.5" width="5.7" height="5.7"/>
</svg>