<?xml version="1.0" encoding="UTF-8"?>
<svg id="Layer_1" data-name="Layer 1" xmlns="http://www.w3.org/2000/svg" version="1.1" viewBox="0 0 200 200">
  <defs>
    <style>
      .cls-1 {
        fill: #64bebe;
      }

      .cls-1, .cls-2 {
        stroke-width: 0px;
      }

      .cls-2 {
        fill: #464646;
      }
    </style>
  </defs>
  <path class="cls-1" d="M78.2,82.9v-6.2c2,0,3.9,0,5.8,0v6.2c-1.8,0-3.8,0-5.8,0Z"/>
  <path class="cls-1" d="M91.2,82.6l-.3-6.2c10.3-.5,18.7-1.7,23.1-3.1l2,5.9c-5,1.7-13.8,2.9-24.8,3.4Z"/>
  <path class="cls-1" d="M54.2,71.7l-.7-6.2c7.2-.8,15.8-1.3,24.8-1.3v6.2c-8.8,0-17.1.4-24.1,1.2Z"/>
  <path class="cls-1" d="M42.5,73.9l-2-5.9c1.5-.5,3.4-1,5.6-1.4l1.2,6.1c-1.9.4-3.5.8-4.8,1.2Z"/>
  <path class="cls-2" d="M168.4,79.8h-24.9v-6.2h24.9l-62.2-43.5c-4.3,0-8.7.4-13,1.1l-1-6.1c4.6-.8,9.3-1.1,14-1.1s2.5.4,3.5,1.1l62.2,43.5c1.7,1.1,2.7,3.1,2.7,5.1,0,3.4-2.8,6.2-6.2,6.2Z"/>
  <path class="cls-2" d="M44.9,61l-5.2-3.5c6.9-10.2,16.5-18.7,28-24.5l2.8,5.5c-10.6,5.4-19.4,13.2-25.7,22.5Z"/>
  <path class="cls-2" d="M168.4,154.4h-46.6v-6.2h46.6v-74.6h6.2v74.6c0,3.4-2.8,6.2-6.2,6.2Z"/>
  <rect class="cls-2" x="140.4" y="107.8" width="31.1" height="6.2"/>
  <rect class="cls-2" x="162.1" y="126.4" width="9.3" height="6.2"/>
  <rect class="cls-2" x="149.7" y="126.4" width="6.2" height="6.2"/>
  <rect class="cls-2" x="134.2" y="126.4" width="9.3" height="6.2"/>
  <path class="cls-2" d="M63.9,58.1l-4.1-4.6c12.4-11.1,28.9-17.2,46.5-17.2h18.6v6.2h-18.6c-16.1,0-31.1,5.5-42.4,15.6Z"/>
  <path class="cls-2" d="M77.5,48.2c-6.9-1.8-11.6-8-11.6-15s7-15.5,15.5-15.5,15.5,7,15.5,15.5-1.2,7.1-3.5,9.8l-4.8-3.9c1.4-1.7,2.1-3.7,2.1-5.9,0-5.1-4.2-9.3-9.3-9.3s-9.3,4.2-9.3,9.3,2.9,8,7,9l-1.6,6Z"/>
  <path class="cls-2" d="M101.6,182.3c-44.4,0-91.7-9.3-91.7-26.4s16.1-16.4,29.6-19.8l1.5,6c-18.4,4.6-24.9,10.3-24.9,13.8,0,8.4,32.5,20.2,85.4,20.2s85.4-11.8,85.4-20.2-4.3-7.2-16.5-11.4l2-5.9c13.8,4.7,20.8,10.5,20.8,17.2,0,17.2-47.2,26.4-91.7,26.4Z"/>
  <g>
    <path class="cls-1" d="M78.2,95.3c-28.6,0-59-7.6-59-21.8s30.4-21.8,59-21.8,59,7.6,59,21.8-30.4,21.8-59,21.8ZM78.2,58.1c-32.7,0-52.8,9-52.8,15.5s20.1,15.5,52.8,15.5,52.8-9,52.8-15.5-20.1-15.5-52.8-15.5Z"/>
    <path class="cls-1" d="M19.9,92.6c-.5-4.2-.7-8.5-.7-12.8v-6.2h6.2v6.2c0,4.1.2,8.2.6,12.1l-6.2.7Z"/>
    <path class="cls-1" d="M78.2,157.5c-16.4,0-27-2.4-32.4-7.5-11.2-10.4-19.6-26.1-23.7-44.2l6.1-1.4c3.8,16.9,11.6,31.5,21.9,41.1,4.1,3.9,13.6,5.8,28.2,5.8s24-2,28.2-5.8c15.4-14.4,24.6-38.9,24.6-65.6v-6.2h6.2v6.2c0,28.4-9.9,54.6-26.6,70.2-5.4,5-16,7.5-32.4,7.5Z"/>
    <path class="cls-1" d="M50.3,135.7c-26.4,0-43.5-12.2-43.5-31.1s6.9-15.5,15.4-15.5,15.4,7,15.4,15.5h-6.2c0-5.1-4.1-9.3-9.2-9.3s-9.2,4.2-9.2,9.3c0,15.1,14.6,24.9,37.3,24.9v6.2Z"/>
  </g>
</svg>