<?xml version="1.0" encoding="UTF-8"?>
<svg id="Layer_1" data-name="Layer 1" xmlns="http://www.w3.org/2000/svg" version="1.1" viewBox="0 0 200 200">
  <defs>
    <style>
      .cls-1 {
        fill: #64bebe;
        stroke-width: 0px;
      }
    </style>
  </defs>
  <path class="cls-1" d="M70.3,177.1h.2c0,0-.4-.2-.4-.2l.2.2ZM73.2,176.3h-.2c0,0-.2-.2-.2-.2h-.1s-.2-.2-.2-.2v-.4c0,0-.3,0-.3,0v.2s-.2,0-.2,0v.3s-.2.2-.2.2v.2c.1,0,.3,0,.3,0v-.2c0,0,0,0,0,0v.2c0,0-.3.1-.3.1l-.3-.4h-.4c0,0-.6,0-.6,0l-.4-.8-.8-.5v.3s.3.2.3.2v.3c-.1,0,.2,0,.2,0l.3.5.3.3h.3c0,0,.5.5.5.5l.8-.2h.5c0,.1,0,.5,0,.5l-.3.2h.5c0,0,.3.5.3.5h.2s-.1-.8-.1-.8l.2-.2v-.2s-.1,0-.1,0h0ZM70.1,174.5v.3s.5.7.5.7l.8.3.2.3h0c0-.1-.2-.4-.2-.4l-.6-.4.2-.2h.3c0,0,0-.1,0-.1h-.4c0-.1-.2-.4-.2-.4v-.2c.1,0-.2-.2-.2-.2l-.2.3h-.4ZM69.9,174l-.3-.2v.3c0,0,.2,0,.2,0v-.2ZM71.7,175.2h-.3c0,.1.4,0,.4,0h-.1ZM70.9,173.9l-.4-.2.5.6v-.4ZM71.8,177h-.2s0,.2,0,.2v.3c.1,0,.3-.2.3-.2v.3s.1-.4.1-.4h0ZM69.2,176.2h-.2c0,0,.2.3.2.3l.8.3-.3-.4h-.5ZM68.6,174.1l-.3.4.2.3h.3c0,0,.2-.4.2-.4l-.4-.3ZM72.1,177.9h-.1c0,0-.1.1-.1.1l.2.2.2-.3h0c0,0,0,0,0,0ZM67.6,175l.2.2h0c0,0,.4.2.4.2l-.5-.8v.4ZM196.3,125.6l-6.1,19.4-27.4,9.6-10.6,2.1-15.3,1.7-8.5,4.2s-5.5,6.8-5.5,6.8c-.6.7-.6,2.1-1.3,2.9-.6.8-1.6,1.3-2.4,1.8h-1.9c0,0-2.2-3-2.2-3l-2.8.4h-3.4c0-.1-4.6-.7-4.6-.7h-1.7c0-.1-1.7-1.2-1.7-1.2h-5.2l-.4.3h-.5c0,0-.7-.3-.7-.3h-.7s-2.3.3-2.3.3l-.2.4-.3-.4h-.8c0,.1-.4.6-.4.6l-.7-.2h-.4c0,.1-.5,0-.5,0l-.2-.2h-.5c0,0-.7-.6-.7-.6v.2s-.6-.6-.6-.6l-1.4-.9h-.7c0,0-.5.2-.5.2h0s.3.4.3.4l-.5.8v.6s.4.2.4.2v.2h.2c0,0,0,.3,0,.3l-1.2.4v.5c.1,0-.3.4-.3.4v.4s-.2,0-.2,0v.2s0,0,0,0h.3c0-.1.4,0,.4,0l.2.4v.2c-.1,0-.7,0-.7,0v.7c0,0-.3.2-.3.2v.2s.4.5.4.5h.4c0,0,0,.3,0,.3h.3c0,.1,0,.5,0,.5v.2c.1,0-.3,0-.3,0v.2c0,0,0,.7,0,.7h-.2s-.5-.3-.5-.3h-.2s.1.3.1.3l-.3.7v.3s-1.2.3-1.2.3l-.4.3v.7c.1,0-.3.1-.3.1h-1.3c0-.1,0-.3,0-.3l.2-.5-.3-.3-.2-.6v-.9c.1,0,0,0,0,0v-.2c-.1,0-.1-.2-.1-.2v-.2s-.7-.8-.7-.8l-.4-.2h-.2c0,0-.1-.3-.1-.3h-.1c0,0-.2-.1-.2-.1l.3-.3v-.4c-.1,0,0-.5,0-.5l-.4-.3-.6-.2-.4-.5v-.5c0,0,0,0,0,0l-.3-.2h0c0,0,.3.6.3.6l-.2.2v.5s0,.3,0,.3v-1s-.3-.8-.3-.8v-1.1c-.1,0-.3,0-.3,0l.2-.6v-.4c0,0-.5-.1-.5-.1l-.4-.7-.5-.4h-.3s0-.4,0-.4l-.2-.2-1.9-1.4-.2-.3h-.4c0,0-.3-.4-.3-.4h-.3s0-.2,0-.2l-1-.9h.2s-.3-.2-.3-.2v-.3c0,0,0,.2,0,.2h-.1c0,0,0-.2,0-.2h.2s0-.3,0-.3c-.6,0-.6-.7-.7-1.1h0c0,0-.3-.4-.3-.4h0c0-.1,0-.3,0-.3h0c0,0-.1.1-.1.1h0c0,0,0-.4,0-.4h-.1c0,0-.1-.2-.1-.2v-.2s-.2-.2-.2-.2v-.5c-.1,0-.1-.2-.1-.2v-.4s-.3-.2-.3-.2v-.3s-.3-.3-.3-.3l-.2-.3h-.6s-.3-.2-.3-.2v-.4c0,0-.5-.6-.5-.6l.3-1.3h-.4c0-.1-.3-.3-.3-.3l-.3-.7.3-.8v-.4c0,0-.9-.3-.9-.3l-.3-.7v-.4c.1,0,0-.4,0-.4l-.2-.2v-.4c-.1,0-.6-.2-.6-.2h0c0-.1-.1-.7-.1-.7v-.7c.1,0-.2-.3-.2-.3h-.6c0-.1-.7-.7-.7-.7v-.3c0,0,.2.2.2.2v-.6c0,0-.2-.8-.2-.8l-.4-.4-.5.2h-.3c0,0,0,.1,0,.1h.3c0,.1,0,.2,0,.2l-.4-.2v-.4c-.1,0-.5-.2-.5-.2v-.5c0,0-.4-.2-.4-.2v-.3c.1,0,0-.3,0-.3l-1.5-1-.8-.3-.3-.5h-.2s0-.3,0-.3h-.6s-.4-.4-.4-.4v-.4c-.1,0-.6-.2-.6-.2h-.5c0,0,0,.2,0,.2h-.2s-.6-.4-.6-.4h-.3c0,0,.4.3.4.3v.2c0,0-.6-.3-.6-.3l-1.4-1-.5-.5h.2c0-.1-.3-.3-.3-.3v-.3s-.2,0-.2,0l-.2-.2-.3-.3h0c0,0,.3,0,.3,0v-.3c-.1,0-.4,0-.4,0l-.4-.5-.4-.8v-.2c.1,0,0-.2,0-.2l-.4-.2v.2s.1.3.1.3h-.2c0,0-.2-.6-.2-.6h.2c0,.1,0,0,0,0h-.1c0-.1,0-.2,0-.2h-.2s-.1,0-.1,0l-.5-.5v-.3c0,0-.2-.2-.2-.2h-.3s-.3-.5-.3-.5v-.3s-.3-.6-.3-.6l-.4-.3-.2-1.1-.2-.2-.3-.7v-.2s.3-.1.3-.1l.3-.2.2-.5-.3-.3v-.2s0-.2,0-.2h.2s-.2-.4-.2-.4h0c0-.1-.2-.1-.2-.1h0c0,0-.2-.1-.2-.1l-.2-1.6-.4-.8-.9-1.1v-.5c-.1,0,0-.1,0-.1v-.4c-.1,0,0-.2,0-.2h.4c0,0-.3.4-.3.4v.2c.1,0,.3-.2.3-.2h.2s0-.7,0-.7h.3s0-.2,0-.2v-.6c.1,0,0-.2,0-.2v.8c-.1,0-.3,0-.3,0l.2-.5v-.4c0,0,.5-1.1.5-1.1v-.5s.1-.2.1-.2h.2s0-.4,0-.4h-.3s0,.2,0,.2h0c0,0-.2-.2-.2-.2v-.6c.1,0,.1-1,.1-1l-.5-.8v-.5c-.1,0-.4-.4-.4-.4l.2-.2h-.2s-.1,0-.1,0l-1.1-1.9h.3c0,.1.4.7.4.7h0c0,.1.3.2.3.2v-.2c.1,0-.3-.6-.3-.6v-.4h-.6,0c0-.1-.2-.1-.2-.1h0c0,0-.4-.5-.4-.5l.2-.4-.2-1v-.2c0,0-.2.2-.2.2l-.4-.6v-.4s-.1-.1-.1-.1h0c-.2-.2-.9-2.3-.9-2.5,0,0,0-.3,0-.3h-.3c0,.1-.2,0-.2,0v.2s.2.1.2.1h0c0,.1-.2,0-.2,0v-.4s-.1-.4-.1-.4h0c0-.1-.2-.2-.2-.2l-.2-.2-.3-.7v-.4s-.3-.3-.3-.3h-.2s-.2-.4-.2-.4l-.6-.4-.2-.3h-.1c0,0-.2-.2-.2-.2v.2c0,0-.3,0-.3,0h0c0-.1-.3-.4-.3-.4v-.2c.1,0-.2.1-.2.1l-.3-.4-.5-.3h0c0,0-.2-.2-.2-.2h-.3c0,.1-1-.6-1-.6h.2c0-.1-.2-.2-.2-.2l.2-.4-.4.2h.1c0,.1-.1.4-.1.4h-.4c0,0-.7-.6-.7-.6l-.3-.6h-.2s-.1-.1-.1-.1h-.2s0-.3,0-.3l-.4.2h-.3c0,0,0,.1,0,.1h.1s0,.3,0,.3h-.4s-.2-.2-.2-.2h-.3s-.5-.7-.5-.7l-.4-.3v-.5c0,0,.3.1.3.1v-.3c0,0-.2-.4-.2-.4v-.4c-.1,0-.4-.2-.4-.2h0s-.4-.8-.4-.8v-.2s-.2,0-.2,0v-.4c-.1,0-.9-.4-.9-.4h0c0-.1-.2-.6-.2-.6h.2s0-.3,0-.3h-.2c0,0,.1,0,.1,0l-.2.2-.4-.5.2-.2h.4c0,0-.2.2-.2.2h.3c0,0,0-.2,0-.2l.3-.2-.2-.4.4-.8-.4-.7.2-.4-.2-.7-1.2-1.4-.4-.9v-.4s-.7-.6-.7-.6v-.5s-.2,0-.2,0v-.5c0,0-.3-.4-.3-.4l-.6-.2-.6-.8h-.1s.1.4.1.4h0s-.2,0-.2,0v-.2c-.1,0-.4,0-.4,0l-.3-.2v-.3s0,.1,0,.1h-.1c0-.1-.2-.6-.2-.6h-.3c0,0,.4-.8.4-.8l.2-.6v-.5c0,0-.5-.3-.5-.3h-.7s0,0,0,0l-.6-.5-.3-1-.8-1.3-.6-1.5-.7-1.2-.5-.6-.3-.5-.5-.3-.5-1.1v-.5s-.8-.9-.8-.9l-.5-.3v-.2c0,0-.9-.8-.9-.8v-.6c-.1,0,.2-.3.2-.3v-.3c0,0-.7-1-.7-1l-.7-.3-.7-.8v-.4s-.5-.6-.5-.6v-.8c-.1,0-.5-.5-.5-.5v-.5c-.1,0-.4-.5-.4-.5l-.2-.2h-.5c0-.1,0-.8,0-.8l-.7-.5-.2-.4-.9-.5v-.2c0,0,.5-.2.5-.2v-.2s-.5,0-.5,0l-.2-.2h-.3s-.5-.4-.5-.4h-.1c0,0-.2-.1-.2-.1h0c0,0,.1.3.1.3l-.3-.2-.6.3h-.6s-.1,0-.1,0v-.3c0,0,.2-.1.2-.1h-.4s-.2.4-.2.4h0c0-.1.2-.4.2-.4h-.1s-.1.2-.1.2h-.3s.1.3.1.3h-.3s.1-.4.1-.4h-.4c0,0,0-.1,0-.1v-.2c-.1,0-.2.1-.2.1h-.2c0,0-.3.3-.3.3l.2.3h-.2s-.2.4-.2.4l-.2-.4v-.3c0,0,0,0,0,0h-.2c0,.1,0,0,0,0l.5-.7h.3c0,0-.1-.2-.1-.2h.2c0-.1.2-.8.2-.8h0s.9-2.2.9-2.2l.3-.5v-.9c0,0-.3-.5-.3-.5l.5-1.5v-.8s.1-.8.1-.8l.2-.3v-.4c-.1,0,.1-.4.1-.4v-.5s.2-.7.2-.7l.2-.2v-.2s.2-.2.2-.2v-.5c-.1,0,0-.1,0-.1v-.2c0,0,0-.4,0-.4l10.1,1.8,3.9-3.2,2.3-3.9,6.8-1.4,1.5-3.5,3-1.8-9.1-10.5,8.9-2.6,9.3-2.7,2.8-2.4v-.5c-.1,0,.2.4.2.4l.6.4,4.9,1.4,1.6.8.9.6,23.5,16.6,17.5,12.1s1.9.4,1.9.4l4.9.8c1.3.2,2.6.4,3.8.6,1.2.2,2.4.2,3.6.3.7.1,1,.3,1.6-.1,0,0,1.1-.8,1.1-.8l8.3,1.1.2.2.9,1.4.2.7v1.2c0,0,1,1.2,1,1.2v.2s6.6-.1,6.6-.1l.3.3h.3c0,.1,0,.7,0,.7l.2.2h0c0,0,.2.1.2.1l-.3.8.3.5.4.3.5.6h-.2c0,.1,0,.8,0,.8v.3c.1,0,.6.6.6.6l1,.3-.2.2h-.2s0,.3,0,.3l.4.5h.3s0,.4,0,.4l.5.3v.6c0,0,0,.1,0,.1h0c0,.1-.2.3-.2.3v-.2h-.1s0-.5,0-.5l-.2.3v-.4c0,0-.4,1.2-.4,1.2h.2s.1-.3.1-.3v.6c0,0,.3-.3.3-.3v.2c.1,0,0,.3,0,.3h.3c0,0,0,0,0,0h-.1s0,.2,0,.2v.2c0,0,.2.1.2.1l.2-.3h.2c0,0-.2.3-.2.3v.3s.2-.1.2-.1v-.3s.4-.2.4-.2h.2c0,0,.3.5.3.5l.7.3h1s.4.2.4.2l.2.4.3.2v.5c0,0,0,0,0,0v-.2c0,0,0-.1,0-.1l-.2.3v-.2c-.1,0-.3.2-.3.2l-.2-.2h-.2c0,.1,0,0,0,0l-.2.2h-.2c0,0,0,.1,0,.1h.1c0,0,.4.2.4.2v.2c.1,0,.4,0,.4,0v-.3s.4.2.4.2l-.2.2h-.2s0,.3,0,.3l-.2.3.5-.3h.4c0,.1,0,1.1,0,1.1l.2.3h.1s.1,0,.1,0h.1c0,0,.3,0,.3,0v.5c-.1,0-.3,0-.3,0h-.1c0,.1.1.1.1.1h0c0,.1.2,0,.2,0v.3c.1,0,.3-.5.3-.5h.1c0,0,0,.4,0,.4l.3-.2h.4c0,.1-.2-.3-.2-.3l.3-.3-.5-.4h-.2s.2-.3.2-.3h0c0-.1.2-.3.2-.3v.5c.1,0,.4,0,.4,0v.4c0,0-.1,0-.1,0l.3.3.2-.2.2-.7.3-.3-.3.8v.4c-.1,0-.3.3-.3.3v.5c.1,0,.5.3.5.3l.6-.4h.3c0,.1,0,.1,0,.1h-.1s0,0,0,0h0c0,.1,0,0,0,0l-.6.3.3.3h.4c0,0,0,0,0,0h-.1s0,.3,0,.3h.2s0,.2,0,.2h0c0,0,.6.5.6.5h0s.3.2.3.2h.3c0,0,.2.3.2.3h.8c0,0,.5.7.5.7l1.2,1.4h.1c0,.1.1.2.1.2h-.2s-.3-.4-.3-.4h-.4c0-.1-.3,0-.3,0l-.3-.5v-.2s-.1.6-.1.6v.3s.3,0,.3,0v.3c0,0,0,.7,0,.7l.2.6.4.5v-.3s.1,0,.1,0v.3c.1,0,.2-.4.2-.4h.1s0,.7,0,.7h.2c0,.1.3-.3.3-.3h0c0,0,.1-.6.1-.6h0c0,.1,0,.4,0,.4v-.2c.1,0,.1.3.1.3l-.3.2v.3s-.1,0-.1,0l.4.4v.4c.1,0,0,1.1,0,1.1v.2c.1,0,0,0,0,0v.4s-.3.3-.3.3v-.2c0,0-.2-.3-.2-.3v.6s0,.1,0,.1l-.2.6v.3c0,0-.1.1-.1.1l-.7-1.6h-.2c0-.1-.1,0-.1,0l-.3.7.2.3v.2c-.1,0-.1.8-.1.8h.2s.2-.2.2-.2l.2.2h.4s.1.2.1.2v.2s.1.2.1.2h-.2s0,.3,0,.3l.3.8.5.7.3.2.2.5h.2c0,.1,0,.3,0,.3h-.1s-.1-.3-.1-.3h-.4c0,0-.3-.5-.3-.5h-.1s-.1-.1-.1-.1l.2.5.3.2h0c0,.1.1,0,.1,0h0c0,0,0,.6,0,.6l.3.3.2.4h.3c0,.1,0,.4,0,.4l.5.7h.1s0-.3,0-.3l-.2-.2h.2c0-.1.2.3.2.3l.9.7.4,1.1v.6c0,0,.2.5.2.5v.5c-.1,0,.1.7.1.7v.2c0,0,.2.1.2.1v-.2c-.1,0,0-.2,0-.2l.7.9.3.9h.3s.1.2.1.2l.4,1.7.2-.5h.4c0,0,0,0,0,0l.3.6,1,1.2,1.2.2.6-.3.4-.5h.3c0,.1.3,0,.3,0h0c0,.1.2.3.2.3h.2c0,0-.2.2-.2.2v.6s.4-.2.4-.2v-.4c0,0,.5-.3.5-.3v-.3s.2.1.2.1h.1c0-.1.1.3.1.3l.3-.2.2.2-.2.2h-.3s-.1.3-.1.3h-.1s-.1.3-.1.3l-.8.6-.2.8h-.1s0,.5,0,.5h.6c0,.1.2-.2.2-.2h.5s.4.1.4.1l.4.6h.4s.2.3.2.3v1.1c-.1,0,9,11,9,11l6.3,1.3,15.8,3.6,1.9-2,4.2,6.9Z"/>
</svg>