<?xml version="1.0" encoding="UTF-8"?>
<svg id="Layer_1" data-name="Layer 1" xmlns="http://www.w3.org/2000/svg" version="1.1" viewBox="0 0 200 200">
  <defs>
    <style>
      .cls-1 {
        fill: #64bebe;
      }

      .cls-1, .cls-2 {
        stroke-width: 0px;
      }

      .cls-2 {
        fill: #464646;
      }
    </style>
  </defs>
  <path class="cls-2" d="M124.3,194.1c-7.3,0-13.5-5.2-14.9-12.1h-55v-83.1h6.1v77.1h54.7v3c0,5,4.1,9.1,9.1,9.1s9.1-4.1,9.1-9.1v-3h54.7v-72.9h-9.1v-6.1h15.2v85h-55c-1.4,6.9-7.5,12.1-14.9,12.1Z"/>
  <polygon class="cls-2" points="182 169.8 66.6 169.8 66.6 99.8 72.7 99.8 72.7 163.8 175.9 163.8 175.9 84.8 151.6 84.8 151.6 78.7 182 78.7 182 169.8"/>
  <path class="cls-2" d="M115.2,157.7h-36.4v-24.3h36.4v24.3ZM84.8,151.6h24.3v-12.1h-24.3v12.1Z"/>
  <rect class="cls-2" x="78.7" y="121.3" width="36.4" height="6.1"/>
  <rect class="cls-2" x="78.7" y="109.1" width="36.4" height="6.1"/>
  <rect class="cls-2" x="133.4" y="121.3" width="36.4" height="6.1"/>
  <rect class="cls-2" x="133.4" y="133.4" width="36.4" height="6.1"/>
  <rect class="cls-2" x="133.4" y="145.5" width="36.4" height="6.1"/>
  <rect class="cls-2" x="121.3" y="93.5" width="6.1" height="73.3"/>
  <g>
    <path class="cls-1" d="M78.7,103c-36.9,0-52.5-9.2-53.2-9.5l-1.5-.9v-39h6.1v35.4c4.5,2.1,19.8,7.9,48.6,7.9s44-5.8,48.6-7.9v-35.4h6.1v39l-1.5.9c-.6.4-16.3,9.5-53.2,9.5Z"/>
    <polygon class="cls-1" points="151.6 75.7 145.5 75.7 145.5 56.9 75.1 42.2 76.3 36.3 151.6 52 151.6 75.7"/>
    <path class="cls-1" d="M148.6,90.9c-5,0-9.1-4.1-9.1-9.1s4.1-9.1,9.1-9.1,9.1,4.1,9.1,9.1-4.1,9.1-9.1,9.1ZM148.6,78.7c-1.7,0-3,1.4-3,3s1.4,3,3,3,3-1.4,3-3-1.4-3-3-3Z"/>
    <polygon class="cls-1" points="163.8 115.2 133.4 115.2 133.5 105.3 139.6 81 145.5 82.5 139.5 106.4 139.5 109.1 157.7 109.1 157.7 106.4 151.7 82.5 157.6 81 163.8 106.1 163.8 115.2"/>
    <rect class="cls-1" x="37.8" y="28.3" width="35.7" height="6.1" transform="translate(-8 25.9) rotate(-24.5)"/>
    <path class="cls-1" d="M78.7,78.7c-2.5,0-4.8-.5-7.1-1.5L10.4,49.4c-2.8-1.3-4.5-4-4.5-7.1s1.8-5.8,4.5-7.1L71.7,7.4c4.4-2,9.7-2,14.1,0l61.3,27.9c2.8,1.3,4.5,4,4.5,7.1s-1.8,5.8-4.5,7.1l-61.3,27.9c-2.2,1-4.6,1.5-7.1,1.5ZM78.7,11.9c-1.6,0-3.1.3-4.5,1L12.9,40.8c-.6.3-1,.9-1,1.5s.4,1.3,1,1.5l61.3,27.9c2.9,1.3,6.2,1.3,9.1,0l61.3-27.9c.6-.3,1-.9,1-1.5s-.4-1.3-1-1.5l-61.3-27.9c-1.4-.7-3-1-4.5-1Z"/>
  </g>
</svg>