<?xml version="1.0" encoding="UTF-8"?>
<svg id="Layer_1" data-name="Layer 1" xmlns="http://www.w3.org/2000/svg" version="1.1" viewBox="0 0 200 200">
  <defs>
    <style>
      .cls-1 {
        fill: #64bebe;
      }

      .cls-1, .cls-2 {
        stroke-width: 0px;
      }

      .cls-2 {
        fill: #464646;
      }
    </style>
  </defs>
  <rect class="cls-2" x="53.6" y="54" width="47.7" height="6.2" transform="translate(-12 92.5) rotate(-58)"/>
  <rect class="cls-2" x="127.1" y="111.2" width="73.8" height="6.2" transform="translate(-19.9 192.7) rotate(-58)"/>
  <path class="cls-2" d="M140,148.9c-20.3,0-38.9-12.7-46.2-31.7-9.5-25.5-30.6-42.8-54.9-45.3l-4.9-.5L71.7,10.9l2.6,4.3c12.9,21.4,38.1,34.6,65.7,34.6s49.5,22.2,49.5,49.5-22.2,49.5-49.5,49.5ZM44.3,66.4c24.6,4.4,45.5,22.6,55.2,48.6,6.4,16.6,22.6,27.7,40.4,27.7s43.3-19.4,43.3-43.3-19.4-43.3-43.3-43.3-53.6-12.7-68.3-33.5l-27.4,43.8Z"/>
  <path class="cls-2" d="M165.1,81.2c-5.8-8-15.2-12.8-25.1-12.8-16.6,0-33-4-47.4-11.7l2.9-5.5c13.6,7.2,29,11,44.5,11s23.1,5.7,30.1,15.4l-5,3.6Z"/>
  <path class="cls-2" d="M82.7,189.1c-2.9,0-5.6-1.1-7.7-3.2l-9.3-9.3c-2-2-3.2-4.8-3.2-7.7s1.3-5.9,3.5-7.9l2.3-2.2,4.2,4.5-2.3,2.2c-1,.9-1.5,2.1-1.5,3.4s.5,2.4,1.4,3.3l9.3,9.3c.9.9,2,1.4,3.3,1.4s2.5-.7,3.1-1.2l42.6-39.2,4.2,4.6-42.6,39.2c-2,1.9-4.6,2.9-7.3,2.9Z"/>
  <rect class="cls-2" x="92.5" y="131.3" width="14.1" height="6.2" transform="translate(-64.7 103.3) rotate(-42.7)"/>
  <path class="cls-1" d="M81.2,173.6c-1.7,0-3.2-.6-4.4-1.8l-12.4-12.4c-1.2-1.2-1.8-2.7-1.8-4.4s.6-3.2,1.8-4.4l18.6-18.6c2.3-2.3,6.4-2.3,8.8,0l12.4,12.4c1.2,1.2,1.8,2.7,1.8,4.4s-.6,3.2-1.8,4.4l-18.6,18.6c-1.2,1.2-2.7,1.8-4.4,1.8ZM87.4,136.5l-18.6,18.6,12.4,12.4,18.6-18.6-12.4-12.4ZM99.8,148.9h0s0,0,0,0Z"/>
  <path class="cls-1" d="M46.2,38.5c-1.7-2.6-4.7-4.2-7.9-4.2h-3.5c-8.5,0-15.5-6.9-15.5-15.5h6.2c0,5.1,4.2,9.3,9.3,9.3h3.5c5.2,0,10.2,2.7,13.1,7l-5.2,3.4Z"/>
  <path class="cls-1" d="M36.1,54c-1.3-.7-2.9-1.1-4.4-1.1h-3.1c-6.8,0-12.9-4.5-14.8-11l5.9-1.8c1.2,3.9,4.8,6.6,8.9,6.6h3.1c2.6,0,5.1.6,7.3,1.8l-2.9,5.4Z"/>
  <path class="cls-1" d="M54.8,23.1c-1.4-.8-2.9-1.2-4.5-1.2h-3.1c-5.6,0-10.9-2.9-13.6-7.3l5.3-3.2c1.6,2.6,4.9,4.3,8.3,4.3h3.1c2.6,0,5.2.7,7.5,2l-3,5.4Z"/>
</svg>