<?xml version="1.0" encoding="utf-8"?>
<!-- Generator: Adobe Illustrator 28.3.0, SVG Export Plug-In . SVG Version: 6.00 Build 0)  -->
<svg version="1.1" id="Layer_1" xmlns="http://www.w3.org/2000/svg" xmlns:xlink="http://www.w3.org/1999/xlink" x="0px" y="0px"
	 viewBox="0 0 260.96 207.35" style="enable-background:new 0 0 260.96 207.35;" xml:space="preserve">
<style type="text/css">
	.st0{fill:#3E4143;}
	.st1{fill:#5CC2BE;}
	.st2{fill:#FFFFFF;}
	.st3{fill:#E2A92F;}
	.st4{fill:#F28034;}
	.st5{fill:#20B38A;}
</style>
<circle class="st0" cx="104.44" cy="185.57" r="18.33"/>
<path class="st1" d="M136.2,123.19h7.97l13.92,36.26h-7.71l-3.05-8.66h-14.28l-3.05,8.66h-7.71L136.2,123.19z M145.04,144.51
	l-3.31-9.06l-1.35-4.41h-0.41l-1.35,4.41l-3.31,9.06H145.04z"/>
<path class="st1" d="M162.3,123.19h13.51c1.86,0,3.55,0.29,5.07,0.86c1.52,0.57,2.82,1.37,3.91,2.38c1.09,1.01,1.92,2.22,2.51,3.62
	c0.59,1.4,0.88,2.93,0.88,4.58c0,1.21-0.21,2.35-0.62,3.42c-0.41,1.06-0.98,2.03-1.71,2.89c-0.72,0.86-1.57,1.62-2.54,2.28
	c-0.97,0.66-1.98,1.17-3.05,1.54l-0.05,0.35l9.93,13.93v0.41h-8.02l-9.57-13.62h-3.26v13.62h-6.99V123.19z M175.75,139.54
	c1.59,0,2.89-0.47,3.91-1.42c1.02-0.94,1.53-2.14,1.53-3.6c0-0.64-0.11-1.27-0.34-1.87c-0.22-0.61-0.56-1.15-1.01-1.62
	c-0.45-0.47-1.01-0.85-1.68-1.14c-0.67-0.29-1.44-0.43-2.3-0.43h-6.57v10.08H175.75z"/>
<path class="st0" d="M203.31,159.45v-29.78h-10.35v-6.48h17.34v36.26H203.31z"/>
<g>
	<g>
		<path class="st0" d="M143.87,186.16c0,2.49-0.85,4.58-2.55,6.26c-1.72,1.69-3.81,2.54-6.3,2.54c-2.5,0-4.6-0.85-6.3-2.54
			c-1.7-1.68-2.55-3.76-2.55-6.26s0.85-4.58,2.55-6.26c1.7-1.69,3.8-2.54,6.3-2.54c2.5,0,4.6,0.86,6.3,2.56
			C143.02,181.61,143.87,183.69,143.87,186.16z M128.44,186.16c0,1.94,0.62,3.55,1.88,4.82c1.26,1.27,2.84,1.9,4.71,1.9
			c1.88,0,3.44-0.63,4.69-1.9c1.26-1.26,1.9-2.86,1.9-4.82s-0.63-3.57-1.9-4.82c-1.25-1.27-2.81-1.91-4.69-1.91
			c-1.87,0-3.44,0.63-4.71,1.91C129.06,182.61,128.44,184.22,128.44,186.16z"/>
		<path class="st0" d="M158.31,194.58h-9.66v-16.84h2.21v14.77h7.45V194.58z"/>
		<path class="st0" d="M168.53,194.96c-1.91,0-3.45-0.61-4.62-1.83c-1.17-1.21-1.75-2.81-1.75-4.8v-10.59h2.21v10.68
			c0,1.38,0.37,2.47,1.11,3.27c0.74,0.8,1.76,1.2,3.05,1.2s2.32-0.4,3.05-1.2c0.74-0.8,1.11-1.89,1.11-3.27v-10.68h2.21v10.59
			c0,2.04-0.58,3.65-1.73,4.85C172.01,194.36,170.46,194.96,168.53,194.96z"/>
		<path class="st0" d="M186,179.81v14.77h-2.21v-14.77h-4.81v-2.07h11.83v2.07H186z"/>
		<path class="st0" d="M197.49,194.58h-2.21v-16.84h2.21V194.58z"/>
		<path class="st0" d="M219.72,186.16c0,2.49-0.85,4.58-2.55,6.26c-1.72,1.69-3.81,2.54-6.3,2.54c-2.5,0-4.6-0.85-6.3-2.54
			c-1.7-1.68-2.55-3.76-2.55-6.26s0.85-4.58,2.55-6.26c1.7-1.69,3.8-2.54,6.3-2.54c2.5,0,4.6,0.86,6.3,2.56
			C218.87,181.61,219.72,183.69,219.72,186.16z M204.29,186.16c0,1.94,0.62,3.55,1.88,4.82c1.26,1.27,2.84,1.9,4.71,1.9
			c1.88,0,3.44-0.63,4.69-1.9c1.26-1.26,1.9-2.86,1.9-4.82s-0.63-3.57-1.9-4.82c-1.25-1.27-2.81-1.91-4.69-1.91
			c-1.87,0-3.44,0.63-4.71,1.91C204.91,182.61,204.29,184.22,204.29,186.16z"/>
		<path class="st0" d="M226.72,194.58h-2.21v-16.84h2.69l8.36,13.1h0.1l-0.1-3.25v-9.85h2.21v16.84h-2.31l-8.75-13.73h-0.1l0.1,3.25
			V194.58z"/>
		<path class="st0" d="M254.02,190.09c0,1.47-0.55,2.66-1.66,3.55c-1.12,0.88-2.48,1.32-4.09,1.32c-1.43,0-2.69-0.41-3.77-1.22
			c-1.09-0.82-1.84-1.93-2.26-3.34l2.12-0.85c0.15,0.5,0.34,0.96,0.6,1.36c0.26,0.41,0.56,0.76,0.9,1.05
			c0.34,0.29,0.73,0.52,1.14,0.68c0.42,0.16,0.86,0.25,1.32,0.25c1.01,0,1.83-0.25,2.48-0.76c0.64-0.51,0.96-1.19,0.96-2.04
			c0-0.71-0.26-1.31-0.79-1.81c-0.5-0.48-1.43-0.96-2.79-1.41c-1.38-0.49-2.23-0.82-2.57-0.99c-1.83-0.91-2.74-2.25-2.74-4.02
			c0-1.24,0.5-2.3,1.51-3.18c1.03-0.88,2.28-1.32,3.77-1.32c1.31,0,2.45,0.33,3.41,0.99c0.96,0.64,1.6,1.45,1.92,2.42l-2.07,0.84
			c-0.19-0.63-0.57-1.15-1.14-1.56c-0.57-0.41-1.26-0.62-2.08-0.62c-0.87,0-1.6,0.24-2.19,0.71c-0.59,0.44-0.89,1.01-0.89,1.72
			c0,0.58,0.23,1.08,0.7,1.5c0.51,0.42,1.63,0.92,3.34,1.5c1.75,0.58,2.99,1.29,3.74,2.13
			C253.64,187.84,254.02,188.87,254.02,190.09z"/>
	</g>
</g>
<rect x="122.78" y="54.58" class="st1" width="25.08" height="25.08"/>
<rect x="57.27" y="54.58" class="st0" width="61.31" height="25.08"/>
<rect x="93.45" y="54.58" class="st0" width="25.08" height="104.61"/>
<rect x="7.11" y="104.73" class="st0" width="25.08" height="25.08"/>
<path class="st1" d="M32.19,79.65H7.11v-7.28c0-38.14,31.03-69.17,69.17-69.17h6.91v25.08h-6.91c-24.31,0-44.09,19.78-44.09,44.09
	V79.65z"/>
<path class="st1" d="M57.27,104.73h25.08v7.28c0,38.14-31.03,69.17-69.17,69.17H6.26V156.1h6.92c24.31,0,44.09-19.78,44.09-44.09
	V104.73z"/>
<rect x="32.19" y="79.65" class="st1" width="25.08" height="25.08"/>
<g>
	<rect x="97.77" y="187.8" class="st2" width="4.45" height="4.45"/>
	<path class="st3" d="M102.22,183.35h-4.45v-1.29c0-6.77,5.51-12.28,12.28-12.28h1.23v4.45h-1.23c-4.32,0-7.83,3.51-7.83,7.83
		V183.35z"/>
	<path class="st4" d="M106.67,187.8h4.45v1.29c0,6.77-5.51,12.28-12.28,12.28h-1.23v-4.45h1.23c4.32,0,7.83-3.51,7.83-7.83V187.8z"
		/>
	<rect x="102.22" y="183.35" class="st5" width="4.45" height="4.45"/>
</g>
<rect x="211.67" y="123.19" class="st1" width="6.48" height="6.48"/>
</svg>
