<?xml version="1.0" encoding="UTF-8"?>
<svg id="Layer_1" data-name="Layer 1" xmlns="http://www.w3.org/2000/svg" version="1.1" viewBox="0 0 150.8 141.7">
  <defs>
    <style>
      .cls-1 {
        fill: none;
        stroke: #fff;
        stroke-miterlimit: 10;
      }

      .cls-2 {
        fill: #fff;
        stroke-width: 0px;
      }
    </style>
  </defs>
  <circle class="cls-1" cx="62.5" cy="112" r="9.2"/>
  <path class="cls-2" d="M78.5,80.7h4l7,18.2h-3.9l-1.5-4.3h-7.2l-1.5,4.3h-3.9l7-18.2ZM82.9,91.4l-1.7-4.5-.7-2.2h-.2l-.7,2.2-1.7,4.5h4.9Z"/>
  <path class="cls-2" d="M91.6,80.7h6.8c.9,0,1.8.1,2.5.4s1.4.7,2,1.2c.5.5,1,1.1,1.3,1.8.3.7.4,1.5.4,2.3s-.1,1.2-.3,1.7c-.2.5-.5,1-.9,1.4-.4.4-.8.8-1.3,1.1s-1,.6-1.5.8v.2s5,7,5,7v.2h-4l-4.8-6.8h-1.6v6.8h-3.5v-18.2ZM98.3,88.9c.8,0,1.4-.2,2-.7.5-.5.8-1.1.8-1.8s0-.6-.2-.9-.3-.6-.5-.8c-.2-.2-.5-.4-.8-.6-.3-.1-.7-.2-1.2-.2h-3.3v5.1h3.2Z"/>
  <path class="cls-2" d="M112.1,98.9v-14.9h-5.2v-3.3h8.7v18.2h-3.5Z"/>
  <g>
    <path class="cls-2" d="M82.3,112.3c0,1.3-.4,2.3-1.3,3.1-.9.9-1.9,1.3-3.2,1.3s-2.3-.4-3.2-1.3c-.9-.8-1.3-1.9-1.3-3.1s.4-2.3,1.3-3.1c.9-.8,1.9-1.3,3.2-1.3s2.3.4,3.2,1.3c.9.8,1.3,1.9,1.3,3.1ZM74.6,112.3c0,1,.3,1.8.9,2.4.6.6,1.4,1,2.4,1s1.7-.3,2.4-1c.6-.6,1-1.4,1-2.4s-.3-1.8-1-2.4c-.6-.6-1.4-1-2.4-1s-1.7.3-2.4,1c-.6.6-.9,1.4-.9,2.4Z"/>
    <path class="cls-2" d="M89.6,116.5h-4.8v-8.5h1.1v7.4h3.7v1Z"/>
    <path class="cls-2" d="M94.7,116.7c-1,0-1.7-.3-2.3-.9-.6-.6-.9-1.4-.9-2.4v-5.3h1.1v5.4c0,.7.2,1.2.6,1.6.4.4.9.6,1.5.6s1.2-.2,1.5-.6c.4-.4.6-.9.6-1.6v-5.4h1.1v5.3c0,1-.3,1.8-.9,2.4-.6.6-1.4.9-2.3.9Z"/>
    <path class="cls-2" d="M103.5,109.1v7.4h-1.1v-7.4h-2.4v-1h5.9v1h-2.4Z"/>
    <path class="cls-2" d="M109.2,116.5h-1.1v-8.5h1.1v8.5Z"/>
    <path class="cls-2" d="M120.4,112.3c0,1.3-.4,2.3-1.3,3.1-.9.9-1.9,1.3-3.2,1.3s-2.3-.4-3.2-1.3c-.9-.8-1.3-1.9-1.3-3.1s.4-2.3,1.3-3.1c.9-.8,1.9-1.3,3.2-1.3s2.3.4,3.2,1.3c.9.8,1.3,1.9,1.3,3.1ZM112.6,112.3c0,1,.3,1.8.9,2.4.6.6,1.4,1,2.4,1s1.7-.3,2.4-1c.6-.6,1-1.4,1-2.4s-.3-1.8-1-2.4c-.6-.6-1.4-1-2.4-1s-1.7.3-2.4,1c-.6.6-.9,1.4-.9,2.4Z"/>
    <path class="cls-2" d="M123.9,116.5h-1.1v-8.5h1.4l4.2,6.6h0v-1.6s0-4.9,0-4.9h1.1v8.5h-1.2l-4.4-6.9h0v1.6s0,5.3,0,5.3Z"/>
    <path class="cls-2" d="M137.6,114.3c0,.7-.3,1.3-.8,1.8-.6.4-1.2.7-2.1.7s-1.3-.2-1.9-.6c-.5-.4-.9-1-1.1-1.7l1.1-.4c0,.3.2.5.3.7s.3.4.5.5.4.3.6.3c.2,0,.4.1.7.1.5,0,.9-.1,1.2-.4.3-.3.5-.6.5-1s-.1-.7-.4-.9c-.2-.2-.7-.5-1.4-.7-.7-.2-1.1-.4-1.3-.5-.9-.5-1.4-1.1-1.4-2s.3-1.2.8-1.6c.5-.4,1.1-.7,1.9-.7s1.2.2,1.7.5c.5.3.8.7,1,1.2l-1,.4c0-.3-.3-.6-.6-.8-.3-.2-.6-.3-1-.3s-.8.1-1.1.4c-.3.2-.4.5-.4.9s.1.5.3.8c.3.2.8.5,1.7.8.9.3,1.5.6,1.9,1.1.4.4.6.9.6,1.6Z"/>
  </g>
  <rect class="cls-2" x="71.7" y="46.3" width="12.6" height="12.6"/>
  <rect class="cls-2" x="38.8" y="46.3" width="30.8" height="12.6"/>
  <rect class="cls-2" x="57" y="46.3" width="12.6" height="52.5"/>
  <rect class="cls-2" x="13.7" y="71.5" width="12.6" height="12.6"/>
  <path class="cls-2" d="M26.3,58.9h-12.6v-3.7c0-19.1,15.6-34.7,34.7-34.7h3.5v12.6h-3.5c-12.2,0-22.1,9.9-22.1,22.1v3.7Z"/>
  <path class="cls-2" d="M38.8,71.5h12.6v3.7c0,19.1-15.6,34.7-34.7,34.7h-3.5v-12.6h3.5c12.2,0,22.1-9.9,22.1-22.1v-3.7Z"/>
  <rect class="cls-2" x="26.3" y="58.9" width="12.6" height="12.6"/>
  <g>
    <rect class="cls-2" x="59.2" y="113.1" width="2.2" height="2.2"/>
    <path class="cls-2" d="M61.4,110.9h-2.2v-.6c0-3.4,2.8-6.2,6.2-6.2h.6v2.2h-.6c-2.2,0-3.9,1.8-3.9,3.9v.6Z"/>
    <path class="cls-2" d="M63.6,113.1h2.2v.6c0,3.4-2.8,6.2-6.2,6.2h-.6v-2.2h.6c2.2,0,3.9-1.8,3.9-3.9v-.6Z"/>
    <rect class="cls-2" x="61.4" y="110.9" width="2.2" height="2.2"/>
  </g>
  <rect class="cls-2" x="116.3" y="80.7" width="3.3" height="3.3"/>
</svg>