<?xml version="1.0" encoding="UTF-8"?>
<svg id="Layer_1" data-name="Layer 1" xmlns="http://www.w3.org/2000/svg" version="1.1" viewBox="0 0 200 200">
  <defs>
    <style>
      .cls-1 {
        fill: #64bebe;
      }

      .cls-1, .cls-2 {
        stroke-width: 0px;
      }

      .cls-2 {
        fill: #464646;
      }
    </style>
  </defs>
  <polygon class="cls-2" points="185.7 163.6 171.9 163.6 171.9 158.1 180.2 158.1 180.2 19.8 19.8 19.8 19.8 158.1 100 158.1 100 163.6 14.3 163.6 14.3 14.3 185.7 14.3 185.7 163.6"/>
  <rect class="cls-2" x="25.3" y="25.3" width="5.5" height="5.5"/>
  <rect class="cls-2" x="36.4" y="25.3" width="5.5" height="5.5"/>
  <rect class="cls-2" x="47.4" y="25.3" width="5.5" height="5.5"/>
  <rect class="cls-2" x="17" y="36.4" width="165.9" height="5.5"/>
  <polygon class="cls-2" points="144.3 80.6 130.4 80.6 130.4 75.1 138.7 75.1 138.7 58.5 108.3 58.5 108.3 75.1 116.6 75.1 116.6 80.6 102.8 80.6 102.8 53 144.3 53 144.3 80.6"/>
  <rect class="cls-2" x="25.3" y="64" width="80.2" height="5.5"/>
  <rect class="cls-2" x="141.5" y="64" width="33.2" height="5.5"/>
  <path class="cls-2" d="M86.2,113.8h-41.5v-27.7h41.5v27.7ZM50.2,108.3h30.4v-16.6h-30.4v16.6Z"/>
  <rect class="cls-2" x="25.3" y="97.2" width="22.1" height="5.5"/>
  <rect class="cls-2" x="83.4" y="97.2" width="33.2" height="5.5"/>
  <path class="cls-2" d="M86.2,147h-41.5v-27.7h41.5v27.7ZM50.2,141.5h30.4v-16.6h-30.4v16.6Z"/>
  <rect class="cls-2" x="25.3" y="130.4" width="22.1" height="5.5"/>
  <rect class="cls-2" x="83.4" y="130.4" width="16.6" height="5.5"/>
  <rect class="cls-2" x="130.4" y="97.2" width="44.3" height="5.5"/>
  <g>
    <path class="cls-1" d="M169.1,185.7h-5.5v-11.1c0-2.2.4-4.3,1.2-6.3l3.5-8.8c.5-1.4.8-2.8.8-4.2v-29.1c0-2.3-1.9-4.1-4.1-4.1s-4.1,1.9-4.1,4.1v1.4h-5.5v-6.9c0-2.3-1.9-4.1-4.1-4.1s-4.1,1.9-4.1,4.1v6.9h-5.5v-6.9c0-2.3-1.9-4.1-4.1-4.1s-4.1,1.9-4.1,4.1v6.9h-5.5v-53.9c0-2.3-1.9-4.1-4.1-4.1s-4.1,1.9-4.1,4.1v65h-5.5v-65c0-5.3,4.3-9.7,9.7-9.7s9.7,4.3,9.7,9.7v38.3c1.3-.6,2.7-.9,4.1-.9,2.7,0,5.2,1.1,6.9,2.9,1.8-1.8,4.2-2.9,6.9-2.9,4.3,0,8,2.8,9.2,6.7,1.4-.7,2.9-1.2,4.6-1.2,5.3,0,9.7,4.3,9.7,9.7v29.1c0,2.2-.4,4.3-1.2,6.3l-3.5,8.8c-.5,1.4-.8,2.8-.8,4.2v11.1Z"/>
    <path class="cls-1" d="M111.1,185.7h-5.5v-8c0-3-1.2-5.9-3.3-8.1-3.2-3.2-5-7.4-5-12v-26.5c0-4.9,2.4-9.5,6.5-12.2,2.4-1.6,5.2-2.5,8.1-2.5h4.7v5.5h-4.7c-1.8,0-3.6.5-5.1,1.5-2.5,1.7-4.1,4.5-4.1,7.6v26.5c0,3,1.2,5.9,3.3,8.1,3.2,3.2,5,7.4,5,12v8Z"/>
  </g>
</svg>