<?xml version="1.0" encoding="UTF-8"?>
<svg id="Layer_1" data-name="Layer 1" xmlns="http://www.w3.org/2000/svg" version="1.1" viewBox="0 0 200 200">
  <defs>
    <style>
      .cls-1 {
        fill: #64bebe;
        stroke-width: 0px;
      }
    </style>
  </defs>
  <path class="cls-1" d="M11.7,77.9h51.5c2,0,3.7-1.6,3.7-3.7v-11c0-10.9-6.8-20.2-16.3-23.9,3.3-3.3,5.3-7.9,5.3-12.9,0-10.1-8.3-18.4-18.4-18.4s-18.4,8.3-18.4,18.4,2,9.5,5.3,12.9c-9.5,3.8-16.3,13.1-16.3,23.9v11c0,2,1.6,3.7,3.7,3.7ZM41.1,44.8c2.7,0,5.3.6,7.6,1.7l-11.3,8.4-11.3-8.4c2.3-1.1,4.9-1.7,7.6-1.7h7.4ZM37.4,15.4c6.1,0,11,5,11,11s-5,11-11,11-11-5-11-11,5-11,11-11ZM15.4,63.2c0-4.7,1.8-8.9,4.7-12.1,0,0,15.2,11.4,15.2,11.4,1.3,1,3.1,1,4.4,0l15.2-11.4c2.9,3.2,4.7,7.5,4.7,12.1v7.4H15.4v-7.4Z"/>
  <path class="cls-1" d="M50.6,153.3c3.3-3.3,5.3-7.9,5.3-12.9,0-10.1-8.3-18.4-18.4-18.4s-18.4,8.3-18.4,18.4,2,9.5,5.3,12.9c-9.5,3.8-16.3,13.1-16.3,23.9v11c0,2,1.6,3.7,3.7,3.7h51.5c2,0,3.7-1.6,3.7-3.7v-11c0-10.9-6.8-20.2-16.3-23.9ZM41.1,158.9c2.7,0,5.3.6,7.6,1.7l-11.3,8.4-11.3-8.4c2.3-1.1,4.9-1.7,7.6-1.7h7.4ZM37.4,129.4c6.1,0,11,5,11,11s-5,11-11,11-11-5-11-11,5-11,11-11ZM59.5,184.6H15.4v-7.4c0-4.7,1.8-8.9,4.7-12.1,0,0,15.2,11.4,15.2,11.4,1.3,1,3.1,1,4.4,0l15.2-11.4c2.9,3.2,4.7,7.5,4.7,12.1v7.4Z"/>
  <path class="cls-1" d="M175.7,39.3c3.3-3.3,5.3-7.9,5.3-12.9,0-10.1-8.3-18.4-18.4-18.4s-18.4,8.3-18.4,18.4,2,9.5,5.3,12.9c-9.5,3.8-16.3,13.1-16.3,23.9v11c0,2,1.6,3.7,3.7,3.7h51.5c2,0,3.7-1.6,3.7-3.7v-11c0-10.9-6.8-20.2-16.3-23.9ZM166.2,44.8c2.7,0,5.3.6,7.6,1.7l-11.3,8.4-11.3-8.4c2.3-1.1,4.9-1.7,7.6-1.7h7.4ZM162.6,15.4c6.1,0,11,5,11,11s-5,11-11,11-11-5-11-11,5-11,11-11ZM184.6,70.6h-44.2v-7.4c0-4.7,1.8-8.9,4.7-12.1,0,0,15.2,11.4,15.2,11.4,1.2.9,3.1,1,4.4,0l15.2-11.4c2.9,3.2,4.7,7.5,4.7,12.1v7.4Z"/>
  <path class="cls-1" d="M175.7,153.3c3.3-3.3,5.3-7.9,5.3-12.9,0-10.1-8.3-18.4-18.4-18.4s-18.4,8.3-18.4,18.4,2,9.5,5.3,12.9c-9.5,3.8-16.3,13.1-16.3,23.9v11c0,2,1.6,3.7,3.7,3.7h51.5c2,0,3.7-1.6,3.7-3.7v-11c0-10.9-6.8-20.2-16.3-23.9ZM166.2,158.9c2.7,0,5.3.6,7.6,1.7l-11.3,8.4-11.3-8.4c2.3-1.1,4.9-1.7,7.6-1.7h7.4ZM162.6,129.4c6.1,0,11,5,11,11s-5,11-11,11-11-5-11-11,5-11,11-11ZM184.6,184.6h-44.2v-7.4c0-4.7,1.8-8.9,4.7-12.1,0,0,15.2,11.4,15.2,11.4,1.3,1,3.1,1,4.4,0l15.2-11.4c2.9,3.2,4.7,7.5,4.7,12.1v7.4Z"/>
  <path class="cls-1" d="M110,89l-14.2,14.2-5.8-5.8c-1.4-1.4-3.8-1.4-5.2,0s-1.4,3.8,0,5.2c0,0,8.4,8.4,8.4,8.4,1.4,1.4,3.7,1.5,5.2,0l16.8-16.8c1.4-1.4,1.4-3.8,0-5.2s-3.8-1.4-5.2,0Z"/>
  <path class="cls-1" d="M100,66.9c-18.3,0-33.1,14.9-33.1,33.1s14.9,33.1,33.1,33.1,33.1-14.9,33.1-33.1-14.9-33.1-33.1-33.1ZM100,125.8c-14.2,0-25.8-11.6-25.8-25.8s11.6-25.8,25.8-25.8,25.8,11.6,25.8,25.8-11.6,25.8-25.8,25.8Z"/>
  <path class="cls-1" d="M100,59.5c2,0,3.7-1.6,3.7-3.7v-29.4c0-2-1.6-3.7-3.7-3.7s-3.7,1.6-3.7,3.7v29.4c0,2,1.6,3.7,3.7,3.7Z"/>
  <path class="cls-1" d="M144.2,103.7h29.4c2,0,3.7-1.6,3.7-3.7s-1.6-3.7-3.7-3.7h-29.4c-2,0-3.7,1.6-3.7,3.7s1.6,3.7,3.7,3.7Z"/>
  <path class="cls-1" d="M100,140.5c-2,0-3.7,1.6-3.7,3.7v29.4c0,2,1.6,3.7,3.7,3.7s3.7-1.6,3.7-3.7v-29.4c0-2-1.6-3.7-3.7-3.7Z"/>
  <path class="cls-1" d="M26.4,96.3c-2,0-3.7,1.6-3.7,3.7s1.6,3.7,3.7,3.7h29.4c2,0,3.7-1.6,3.7-3.7s-1.6-3.7-3.7-3.7h-29.4Z"/>
</svg>