<?xml version="1.0" encoding="UTF-8"?>
<svg id="Layer_1" data-name="Layer 1" xmlns="http://www.w3.org/2000/svg" version="1.1" viewBox="0 0 200 200">
  <defs>
    <style>
      .cls-1 {
        fill: #64bebe;
        stroke-width: 0px;
      }
    </style>
  </defs>
  <path class="cls-1" d="M197.3,91.7c-.9-4.4-3.8-7.9-7.7-9.8-.9-9.7-7.1-18.1-15.7-22.2,2.5-2.8,4.1-6.4,4.1-10.5,0-8.6-7-15.6-15.6-15.6s-15.6,7-15.6,15.6,1.6,7.6,4,10.4c-1.9.9-3.8,2.1-5.5,3.4-1.1-1.6-2.4-3.2-3.8-4.6-2.7-2.7-5.8-4.8-9.2-6.3,4-3.6,6.6-8.7,6.6-14.5,0-10.8-8.8-19.5-19.5-19.5s-19.5,8.8-19.5,19.5,2.6,11,6.6,14.5c-5.3,2.4-9.8,6.2-13,11-1.7-1.4-3.5-2.5-5.5-3.4,2.5-2.8,4-6.4,4-10.4,0-8.6-7-15.6-15.6-15.6s-15.6,7-15.6,15.6,1.6,7.6,4.1,10.4c-9.3,4.4-15.8,13.8-15.8,24.7v1.2l-12.6,9.9c-1.1-1.7-1.7-2.7-1.7-2.7-1.1-1.8-3.6-2.4-5.4-1.2l-25.3,16.1c-1.8,1.2-2.4,3.6-1.2,5.4,0,0,42.6,67.2,42.6,67.2,1.1,1.7,3.6,2.4,5.4,1.2,0,0,25.3-16.1,25.3-16.1,1.8-1.2,2.4-3.6,1.2-5.4,0,0-.7-1.1-1.9-3l14.9-8.5c1.8-1,3.8-1.5,5.8-1.5h33.6c4.2,0,8.3-1.4,11.6-3.9l50.3-37.4c4.4-3.2,6.5-8.7,5.4-14ZM162.5,41.5c4.3,0,7.8,3.5,7.8,7.8s-3.5,7.8-7.8,7.8-7.8-3.5-7.8-7.8,3.5-7.8,7.8-7.8ZM162.5,64.9c9.5,0,17.3,6.9,19.1,15.9-1.6.2-3.1.7-4.6,1.4l-26.3,14.7v-16.4c0-3.5-.6-7-1.7-10.2,3.6-3.4,8.4-5.4,13.5-5.4ZM107.8,37.5c0-6.5,5.3-11.7,11.7-11.7s11.7,5.3,11.7,11.7-5.3,11.7-11.7,11.7-11.7-5.3-11.7-11.7ZM119.5,57.1c6.3,0,12.1,2.4,16.6,6.9s6.9,10.3,6.9,16.6v9.2c-1.8-.9-3.8-1.4-5.9-1.4h-27.8c-.5,0-1,0-1.4-.3l-11.8-4.7v-2.8c0-12.9,10.5-23.4,23.4-23.4ZM68.8,49.3c0-4.3,3.5-7.8,7.8-7.8s7.8,3.5,7.8,7.8-3.5,7.8-7.8,7.8-7.8-3.5-7.8-7.8ZM76.6,64.9c5.1,0,9.8,1.9,13.4,5.4-1.1,3.2-1.7,6.6-1.7,10.2v.2c-.7-.1-1.5-.2-2.3-.2h-24.9c-1.3,0-2.5.2-3.7.5,1.6-9.1,9.6-16.1,19.2-16.1ZM50.1,172.7L11.7,112.1l18.7-11.9,38.4,60.6-18.7,11.9ZM187.3,99.3l-50.3,37.4c-2,1.5-4.5,2.3-7,2.3h-33.6c-3.4,0-6.7.9-9.7,2.6l-15.2,8.7c-8.2-12.9-22.5-35.5-30.6-48.2l15.4-12.1c1.4-1.1,3.1-1.7,4.8-1.7h24.9c1,0,2,.2,2.9.6l16,6.4c1.4.6,2.9.8,4.4.8h27.8c3.2,0,5.9,2.6,5.9,5.9s-2.6,5.9-5.9,5.9h-29.3c-2.2,0-3.9,1.7-3.9,3.9s1.7,3.9,3.9,3.9h29.3c6,0,11.1-4,12.9-9.4l30.8-17.2c3.6-1.9,8.1.2,8.9,4.2.5,2.3-.5,4.7-2.4,6.1Z"/>
</svg>