<?xml version="1.0" encoding="UTF-8"?>
<svg id="Layer_1" data-name="Layer 1" xmlns="http://www.w3.org/2000/svg" version="1.1" viewBox="0 0 200 200">
  <defs>
    <style>
      .cls-1 {
        fill: #64bebe;
      }

      .cls-1, .cls-2 {
        stroke-width: 0px;
      }

      .cls-2 {
        fill: #464646;
      }
    </style>
  </defs>
  <g>
    <path class="cls-2" d="M191,31.5H9V8.7h181.9v22.7ZM14.7,25.8h170.6v-11.4H14.7v11.4Z"/>
    <rect class="cls-2" x="11.9" y="133.8" width="11.4" height="5.7"/>
    <rect class="cls-2" x="171.1" y="133.8" width="17.1" height="5.7"/>
    <g>
      <rect class="cls-2" x="20.4" y="17.3" width="5.7" height="5.7"/>
      <rect class="cls-2" x="31.8" y="17.3" width="5.7" height="5.7"/>
      <rect class="cls-2" x="43.1" y="17.3" width="5.7" height="5.7"/>
    </g>
    <rect class="cls-2" x="60.2" y="17.3" width="119.4" height="5.7"/>
    <rect class="cls-2" x="176.8" y="34.8" width="5.7" height="95.7"/>
    <rect class="cls-2" x="17.6" y="34.8" width="5.7" height="95.7"/>
    <polygon class="cls-2" points="191 150.9 168.2 150.9 168.2 145.2 185.3 145.2 185.3 31.5 14.7 31.5 14.7 145.2 23.2 145.2 23.2 150.9 9 150.9 9 25.8 191 25.8 191 150.9"/>
  </g>
  <g>
    <g>
      <g>
        <path class="cls-1" d="M136.9,146.7c-7.4,0-14-5.3-15.4-12.9-1.5-8.5,4.1-16.7,12.6-18.2,8.5-1.5,16.7,4.1,18.2,12.6h0c.7,4.1-.2,8.3-2.5,11.7-2.4,3.4-6,5.7-10.1,6.5-.9.2-1.9.2-2.8.2ZM137,121c-.6,0-1.2,0-1.8.2-5.4,1-9,6.2-8.1,11.6,1,5.4,6.2,9,11.6,8.1,2.6-.5,4.9-1.9,6.4-4.1,1.5-2.2,2.1-4.8,1.6-7.5-.5-2.6-1.9-4.9-4.1-6.4-1.7-1.2-3.7-1.8-5.7-1.8Z"/>
        <path class="cls-1" d="M138.9,162.4h-3c-3.8-.2-7.4-1-10.9-2.5l-2.8-1.2,1.3-2.7c.4-.9,0-2.5-1.5-3.5-1.5-1-3.1-.9-3.8-.2l-2.1,2.2-2.1-2.2c-2.6-2.8-4.6-5.9-6.1-9.4l-1.2-2.8,2.8-1c1-.3,1.7-1.7,1.4-3.5-.3-1.8-1.5-2.8-2.5-2.8h-3c0,0,.1-2.9.1-2.9.1-3.8.9-7.4,2.4-10.9l1.2-2.8,2.7,1.3c.9.4,2.5,0,3.5-1.5,1-1.5.9-3.1.2-3.8l-2.2-2.1,2.2-2.1c2.8-2.6,5.9-4.6,9.4-6.1l2.8-1.1,1,2.8c.3.9,1.7,1.7,3.5,1.4,1.8-.3,2.8-1.6,2.8-2.6v-3c0,0,2.9.1,2.9.1,3.7.1,7.4.9,10.9,2.4l2.8,1.2-1.3,2.7c-.4.9,0,2.5,1.5,3.5,1.5,1,3.1.9,3.8.2l2.1-2.2,2.1,2.2c2.6,2.8,4.6,5.9,6.1,9.4l1.1,2.8-2.8,1c-1,.3-1.7,1.7-1.4,3.5.3,1.8,1.5,2.8,2.5,2.8h3.1c0,0-.1,2.9-.1,2.9-.1,3.7-.9,7.4-2.4,10.9l-1.2,2.8-2.7-1.3c-.9-.4-2.5,0-3.5,1.5-1,1.5-.9,3.1-.2,3.8l2.2,2.1-2.2,2.1c-2.8,2.6-5.9,4.6-9.4,6.1l-2.8,1.1-1-2.9c-.3-.9-1.7-1.7-3.5-1.4-1.8.3-2.8,1.6-2.8,2.6v3ZM129.3,155.4c1.4.5,2.9.8,4.4,1,1.1-2.6,3.7-4.6,6.9-5.2,3.2-.6,6.3.4,8.2,2.5,1.3-.7,2.6-1.5,3.8-2.4-1.1-2.6-.7-5.8,1.2-8.5,1.9-2.7,4.8-4.1,7.6-4.1.5-1.4.8-2.9,1-4.4-2.6-1.1-4.6-3.7-5.2-6.9h0c-.6-3.2.4-6.3,2.5-8.3-.7-1.3-1.5-2.6-2.4-3.8-2.6,1.1-5.8.7-8.5-1.2-2.7-1.9-4.2-4.7-4.1-7.6-1.4-.4-2.9-.8-4.4-1-1.1,2.6-3.6,4.6-6.9,5.2-3.2.6-6.3-.4-8.3-2.5-1.3.7-2.6,1.5-3.8,2.4,1.1,2.6.7,5.8-1.2,8.5-1.9,2.7-4.7,4.1-7.6,4.1-.4,1.4-.8,2.9-1,4.4,2.6,1.1,4.6,3.6,5.2,6.9.6,3.2-.4,6.3-2.5,8.2.7,1.3,1.5,2.6,2.4,3.8,2.6-1.1,5.8-.7,8.5,1.2,2.7,1.9,4.2,4.8,4.1,7.6Z"/>
      </g>
      <rect class="cls-1" x="134.1" y="128.1" width="5.7" height="5.7"/>
    </g>
    <g>
      <g>
        <path class="cls-1" d="M65.9,170.8c-11,0-19.9-8.9-19.9-19.9s8.9-19.9,19.9-19.9,19.9,8.9,19.9,19.9-8.9,19.9-19.9,19.9ZM65.9,136.7c-7.8,0-14.2,6.4-14.2,14.2s6.4,14.2,14.2,14.2,14.2-6.4,14.2-14.2-6.4-14.2-14.2-14.2Z"/>
        <path class="cls-1" d="M71.5,191.3l-.5-3c-.3-2-2.6-3.5-5.2-3.5s-4.9,1.5-5.2,3.5l-.5,3-2.9-.6c-4.8-1-9.3-2.9-13.4-5.6l-2.5-1.6,1.8-2.4c1.2-1.6.6-4.3-1.2-6.1-1.8-1.8-4.5-2.4-6.1-1.2l-2.4,1.8-1.6-2.5c-2.7-4.1-4.5-8.7-5.6-13.4l-.6-2.9,3-.5c2-.3,3.5-2.6,3.5-5.2s-1.5-4.9-3.5-5.2l-3-.5.6-2.9c1-4.8,2.9-9.3,5.6-13.4l1.6-2.5,2.4,1.8c1.6,1.2,4.3.6,6.1-1.2,1.8-1.8,2.4-4.5,1.2-6.1l-1.8-2.4,2.5-1.6c4.1-2.7,8.7-4.5,13.4-5.6l2.9-.6.5,3c.3,2,2.6,3.5,5.2,3.5s4.9-1.5,5.2-3.5l.5-3,2.9.6c4.8,1,9.3,2.9,13.4,5.6l2.5,1.6-1.8,2.4c-1.2,1.6-.6,4.3,1.2,6.1,1.8,1.8,4.5,2.4,6.1,1.2l2.4-1.8,1.6,2.5c2.7,4.1,4.5,8.7,5.6,13.4l.6,2.9-3,.5c-2,.3-3.5,2.6-3.5,5.2s1.5,4.9,3.5,5.2l3,.5-.6,2.9c-1,4.8-2.9,9.3-5.6,13.4l-1.6,2.5-2.4-1.8c-1.6-1.2-4.3-.6-6.1,1.2-1.8,1.8-2.4,4.5-1.2,6.1l1.8,2.4-2.5,1.6c-4.1,2.7-8.7,4.5-13.4,5.6l-2.9.6ZM65.9,179.1c4.2,0,8,2.2,9.8,5.3,2.4-.7,4.8-1.7,7-2.9-1-3.5.1-7.7,3.2-10.7,3-3,7.2-4.2,10.7-3.2,1.2-2.2,2.2-4.6,2.9-7-3.2-1.8-5.3-5.6-5.3-9.8s2.2-8,5.3-9.8c-.7-2.4-1.7-4.8-2.9-7-3.5,1-7.7-.1-10.7-3.2-3-3-4.2-7.2-3.2-10.7-2.2-1.2-4.6-2.2-7-2.9-1.8,3.2-5.6,5.3-9.8,5.3s-8-2.2-9.8-5.3c-2.4.7-4.8,1.7-7,2.9,1,3.5-.1,7.7-3.2,10.7-3,3-7.2,4.2-10.7,3.2-1.2,2.2-2.2,4.6-2.9,7,3.2,1.8,5.3,5.6,5.3,9.8s-2.2,8-5.3,9.8c.7,2.4,1.7,4.8,2.9,7,3.5-1,7.7.1,10.7,3.2,3,3,4.2,7.2,3.2,10.7,2.2,1.2,4.6,2.2,7,2.9,1.8-3.2,5.6-5.3,9.8-5.3Z"/>
      </g>
      <rect class="cls-1" x="63" y="139.5" width="5.7" height="5.7"/>
      <rect class="cls-1" x="63" y="156.6" width="5.7" height="5.7"/>
      <rect class="cls-1" x="71.6" y="148" width="5.7" height="5.7"/>
      <rect class="cls-1" x="54.5" y="148" width="5.7" height="5.7"/>
    </g>
  </g>
  <g>
    <rect class="cls-2" x="28.9" y="40" width="54" height="5.7"/>
    <rect class="cls-2" x="88.6" y="40" width="28.4" height="5.7"/>
    <rect class="cls-2" x="28.9" y="51.4" width="25.6" height="5.7"/>
    <rect class="cls-2" x="60.2" y="51.4" width="45.5" height="5.7"/>
    <rect class="cls-2" x="28.9" y="62.8" width="11.4" height="5.7"/>
    <rect class="cls-2" x="46" y="62.8" width="34.1" height="5.7"/>
    <rect class="cls-2" x="85.8" y="62.8" width="11.4" height="5.7"/>
    <rect class="cls-2" x="28.9" y="74.1" width="39.8" height="5.7"/>
    <rect class="cls-2" x="74.4" y="74.1" width="39.8" height="5.7"/>
    <rect class="cls-2" x="28.9" y="85.5" width="22.7" height="5.7"/>
    <rect class="cls-2" x="57.4" y="85.5" width="28.4" height="5.7"/>
    <rect class="cls-2" x="91.5" y="85.5" width="14.2" height="5.7"/>
    <rect class="cls-2" x="28.9" y="96.9" width="39.8" height="5.7"/>
  </g>
</svg>